<?xml version="1.0" encoding="utf-8"?>
<!-- Generator: Adobe Illustrator 24.1.0, SVG Export Plug-In . SVG Version: 6.00 Build 0)  -->
<svg version="1.1" id="Layer_1" xmlns="http://www.w3.org/2000/svg" xmlns:xlink="http://www.w3.org/1999/xlink" x="0px" y="0px"
	 viewBox="0 0 24 24" style="enable-background:new 0 0 24 24;" xml:space="preserve">
<style type="text/css">
	.st0{clip-path:url(#mask_1_);}
	.st1{fill:#A6ABFF;}
	.st2{fill:#535DFF;}
</style>
<g id="door">
	<defs>
		<rect id="mask" x="7" y="12" width="10" height="10"/>
	</defs>
	<clipPath id="mask_1_">
		<use xlink:href="#mask"  style="overflow:visible;"/>
	</clipPath>
	<g id="door_1_" class="st0">
		<rect x="9" y="12" class="st1" width="6" height="2"/>
		<rect x="9" y="16" class="st1" width="6" height="2"/>
		<rect x="7" y="20" class="st2" width="10" height="2"/>
	</g>
</g>
<path id="garage" class="st2" d="M12,2.9L1.1,8.1l0.9,1.8L3,9.4V20c0,1.1,0.9,2,2,2h2h2v-2v-1v-7h6v7v1v2h2h2c1.1,0,2-0.9,2-2V9.4
	l1.1,0.5l0.9-1.8L12,2.9z M19,20h-2V10H7v10H5V8.4l7-3.3l7,3.3V20z"/>
</svg>
