<?xml version="1.0" encoding="utf-8"?>
<!-- Generator: Adobe Illustrator 24.1.0, SVG Export Plug-In . SVG Version: 6.00 Build 0)  -->
<svg version="1.1" id="Layer_1" xmlns="http://www.w3.org/2000/svg" xmlns:xlink="http://www.w3.org/1999/xlink" x="0px" y="0px"
	 viewBox="0 0 24 24" style="enable-background:new 0 0 24 24;" xml:space="preserve">
<style type="text/css">
	.st0{fill:#A6ABFF;}
	.st1{display:none;opacity:0.43;fill:#FF55CF;}
	.st2{fill:#535DFF;}
</style>
<circle id="const" class="st0" cx="20" cy="8" r="3"/>
<rect id="mask-curtains-roll" x="1" y="10" class="st1" width="19" height="12"/>
<polygon id="roll" class="st2" points="16,10 16,20 3,20 3,10 1,10 1,22 18,22 18,21 18,20 18,10 "/>
<path class="st2" d="M24,2c0,0.6-0.4,1-1,1H1C0.4,3,0,2.6,0,2c0-0.6,0.4-1,1-1h22C23.6,1,24,1.4,24,2z M24,8c0,2.2-1.8,4-4,4
	c-0.7,0-1.4-0.2-2-0.6V12h-2V8c0-0.7,0.2-1.4,0.6-2H6C4.3,6,3,7.3,3,9v3H1V9c0-2.8,2.2-5,5-5h14C22.2,4,24,5.8,24,8z M22,8
	c0-1.1-0.9-2-2-2s-2,0.9-2,2s0.9,2,2,2S22,9.1,22,8z"/>
</svg>
