<svg width="24" height="24" viewBox="0 0 24 24" fill="none" xmlns="http://www.w3.org/2000/svg">
<path fill-rule="evenodd" clip-rule="evenodd" d="M7.52099 10.3306V13.398C7.52099 13.5879 7.47052 13.7772 7.35332 13.9267C6.74329 14.7048 5.96045 14.8226 5 15V16C9.60624 16 14.3935 16 19 16V15C18.0395 14.8226 17.2563 14.7048 16.6462 13.9267C16.529 13.7772 16.4786 13.5879 16.4786 13.398V10.3306C16.3632 8.28591 14.9767 6.67042 13.1217 6.24912V5.13037C13.1217 3.62332 10.8781 3.6231 10.8781 5.13037V6.24912C9.02289 6.66999 7.63466 8.28438 7.52099 10.3306ZM9.5632 17H14.4504C14.4504 19.9144 9.5632 19.9144 9.5632 17Z" fill="black"/>
</svg>
