<?xml version="1.0" encoding="utf-8"?>
<!-- Generator: Adobe Illustrator 24.1.0, SVG Export Plug-In . SVG Version: 6.00 Build 0)  -->
<svg version="1.1" id="Layer_1" xmlns="http://www.w3.org/2000/svg" xmlns:xlink="http://www.w3.org/1999/xlink" x="0px" y="0px"
	 viewBox="0 0 24 24" style="enable-background:new 0 0 24 24;" xml:space="preserve">
<style type="text/css">
	.st0{fill:#535DFF;}
	.st1{fill:#A6ABFF;}
</style>
<path id="column" class="st0" d="M0,6h2v15H0V6z M1,3c0.6,0,1,0.4,1,1S1.6,5,1,5S0,4.6,0,4S0.4,3,1,3z M22,6h2v15h-2V6z M23,3
	c0.6,0,1,0.4,1,1s-0.4,1-1,1s-1-0.4-1-1S22.4,3,23,3z"/>
<g id="gates">
	<path id="bars" class="st1" d="M4,10h2v7H4V10z M8,10h2v7H8V10z M12,10h2v7h-2V10z M16,10h2v7h-2V10z"/>
	<path class="st0" d="M23.7,19H0V8h17.6L23.7,19z M2,17h18.3l-3.9-7H2V17z"/>
</g>
</svg>
