<svg width="24" height="24" viewBox="0 0 24 24" fill="none" xmlns="http://www.w3.org/2000/svg">
<path d="M19.0001 9.19238V4C19.0001 3.44775 18.5523 3 18.0001 3H16.0001C15.4479 3 15.0001 3.44775 15.0001 4V4.85889L19.0001 9.19238Z" fill="black"/>
<path d="M12.3701 3.40697C12.1717 3.18875 11.8285 3.18875 11.6301 3.40697L2.76041 13.1637C2.46842 13.4848 2.69631 14 3.13038 14H4.0001V20C4.0001 20.5523 4.44782 21 5.0001 21H9.0001C9.55239 21 10.0001 20.5523 10.0001 20V15H14.0001V20C14.0001 20.5523 14.4478 21 15.0001 21H19.0001C19.5524 21 20.0001 20.5523 20.0001 20V14H20.8698C21.3039 14 21.5318 13.4848 21.2398 13.1637L12.3701 3.40697Z" fill="black"/>
</svg>
