<?xml version="1.0" encoding="utf-8"?>
<!-- Generator: Adobe Illustrator 24.1.2, SVG Export Plug-In . SVG Version: 6.00 Build 0)  -->
<svg version="1.1" id="Layer_1" xmlns="http://www.w3.org/2000/svg" xmlns:xlink="http://www.w3.org/1999/xlink" x="0px" y="0px"
	 viewBox="0 0 24 24" style="enable-background:new 0 0 24 24;" xml:space="preserve">
<style type="text/css">
	.st0{fill-rule:evenodd;clip-rule:evenodd;}
</style>
<path class="st0" d="M7.5,10.3c0.1-2,1.6-3.8,3.5-4.2l0,0V6h0V5c0-1.5,2-1.5,2,0v1h0v0.1l0,0c1.9,0.4,3.4,2.2,3.5,4.2v3.1
	c0,0.2,0.1,0.4,0.2,0.5c0,0,0,0,0.1,0.1c0.6,0.7,1.3,0.8,2.2,1l0.1,0v1H5v-1l0.1,0c0.9-0.2,1.6-0.3,2.2-1c0,0,0,0,0.1-0.1
	c0.1-0.1,0.2-0.3,0.2-0.5V10.3z M11.4,8.1L12,7.9l0.6,0.1c1,0.2,1.8,1.2,1.9,2.3v3c0,0.2,0,0.4,0.1,0.6H9.5c0-0.2,0.1-0.4,0.1-0.6
	v-3C9.6,9.2,10.5,8.3,11.4,8.1z M13,19c-0.7,0.2-1.4,0.2-2.1,0c-0.5-0.2-0.9-0.5-1.2-1c-0.1-0.3-0.2-0.6-0.2-1h4.9
	c0,0.4-0.1,0.7-0.2,1C14,18.5,13.5,18.8,13,19z"/>
</svg>
