<?xml version="1.0" encoding="utf-8"?>
<!-- Generator: Adobe Illustrator 24.1.0, SVG Export Plug-In . SVG Version: 6.00 Build 0)  -->
<svg version="1.1" id="Layer_1" xmlns="http://www.w3.org/2000/svg" xmlns:xlink="http://www.w3.org/1999/xlink" x="0px" y="0px"
	 viewBox="0 0 24 24" style="enable-background:new 0 0 24 24;" xml:space="preserve">
<style type="text/css">
	.st0{fill:#535DFF;}
</style>
<path class="st0" d="M18,9V6c-1,0-3.3-0.2-4.5,2.2l-4.2,8.5c-1,2-3.1,3.3-5.4,3.3H0v-2h3.9c1.5,0,2.9-0.9,3.6-2.2l4.2-8.5
	C13.1,4.6,15.4,4,18,4V1l6,4L18,9z M8.5,10.3l1.1-2.2C8.4,5.6,6.8,4,3.9,4H0v2h3.9C6.8,6,7.6,8.3,8.5,10.3z M24,19l-6-4v3
	c-3.8,0-4-1.2-5.6-4.3l-1.1,2.2c1,2,2.1,4.1,6.7,4.1v3L24,19z"/>
</svg>
