<?xml version="1.0" encoding="utf-8"?>
<!-- Generator: Adobe Illustrator 24.1.2, SVG Export Plug-In . SVG Version: 6.00 Build 0)  -->
<svg version="1.1" id="Layer_1" xmlns="http://www.w3.org/2000/svg" xmlns:xlink="http://www.w3.org/1999/xlink" x="0px" y="0px"
	 viewBox="0 0 24 24" style="enable-background:new 0 0 24 24;" xml:space="preserve">
<style type="text/css">
	.st0{fill:#A6ABFF;}
	.st1{fill:#535DFF;}
</style>
<rect id="const" x="6" y="18" class="st0" width="12" height="4"/>
<path class="st1" d="M15.8,13.9c-0.4,0-0.8-0.4-0.8-0.8V13h0.5c0.8,0,1.5-0.7,1.5-1.5S16.3,10,15.5,10h-1.4L16,1.2
	c0.1-0.5-0.2-1.1-0.8-1.2c-0.5-0.1-1.1,0.2-1.2,0.8l-1.3,6L13,1c0-0.6-0.4-1-1-1c-0.6,0-1,0.4-1,1l-0.4,9H8.5C7.7,10,7,10.7,7,11.5
	S7.7,13,8.5,13H9v0.2C9,13.6,8.6,14,8.2,14C6.4,14,5,15.4,5,17.2V20c0,2.2,1.8,4,4,4h6c2.2,0,4-1.8,4-4v-2.9
	C19,15.3,17.6,13.9,15.8,13.9z M17,20c0,1.1-0.9,2-2,2H9c-1.1,0-2-0.9-2-2v-2.8C7,16.5,7.5,16,8.2,16c0.9,0,1.7-0.4,2.2-1.1
	l-0.2,3.7L10,19.8c-0.1,0.5,0.2,1.1,0.8,1.2c0.1,0,0.1,0,0.2,0c0,0,0,0,0,0c0.1,0,0.1,0,0.2,0c0,0,0,0,0,0c0.5,0,1-0.4,1-1l0.1-1.2
	l1-4.6c0.4,1,1.4,1.7,2.6,1.7c0.7,0,1.2,0.5,1.2,1.2V20z"/>
</svg>
