<?xml version="1.0" encoding="utf-8"?>
<!-- Generator: Adobe Illustrator 24.1.2, SVG Export Plug-In . SVG Version: 6.00 Build 0)  -->
<svg version="1.1" id="Layer_1" xmlns="http://www.w3.org/2000/svg" xmlns:xlink="http://www.w3.org/1999/xlink" x="0px" y="0px"
	 viewBox="0 0 24 24" style="enable-background:new 0 0 24 24;" xml:space="preserve">
<style type="text/css">
	.st0{fill:#535DFF;}
</style>
<path class="st0" d="M14.4,0H6C4.3,0,3,1.3,3,3v18c0,1.7,1.3,3,3,3h12c1.7,0,3-1.3,3-3V6.6L14.4,0z M15,3.4L17.6,6H16
	c-0.6,0-1-0.4-1-1V3.4z M18,22H6c-0.6,0-1-0.4-1-1V3c0-0.6,0.4-1,1-1h7v3c0,1.7,1.3,3,3,3h3v13C19,21.6,18.6,22,18,22z M8,11h8
	c0.6,0,1,0.4,1,1l0,0c0,0.6-0.4,1-1,1H8c-0.6,0-1-0.4-1-1l0,0C7,11.4,7.4,11,8,11z M8,7h3c0.6,0,1,0.4,1,1l0,0c0,0.6-0.4,1-1,1H8
	C7.4,9,7,8.6,7,8l0,0C7,7.4,7.4,7,8,7z M8,15h8c0.6,0,1,0.4,1,1l0,0c0,0.6-0.4,1-1,1H8c-0.6,0-1-0.4-1-1l0,0C7,15.4,7.4,15,8,15z"/>
</svg>
