<?xml version="1.0" encoding="utf-8"?>
<!-- Generator: Adobe Illustrator 24.1.0, SVG Export Plug-In . SVG Version: 6.00 Build 0)  -->
<svg version="1.1" id="Layer_1" xmlns="http://www.w3.org/2000/svg" xmlns:xlink="http://www.w3.org/1999/xlink" x="0px" y="0px"
	 viewBox="0 0 24 24" style="enable-background:new 0 0 24 24;" xml:space="preserve">
<style type="text/css">
	.st0{fill:#535DFF;}
	.st1{fill:#A6ABFF;}
</style>
<path class="st0" d="M24,16H0V8h24V16z M2,14h20v-4H2V14z"/>
<path id="var" class="st1" d="M4,10h2v4H4V10z M8,10h2v4H8V10z M12,10h2v4h-2V10z M16,10h2v4h-2V10z M20,10h2v4h-2V10z M4.6,6.1
	c0.6-0.6,0.6-1.5,0-2.1L4.1,3.4c-0.2-0.2-0.2-0.5,0-0.7l1.3-1.3L4.6,0.6L3.4,1.9c-0.6,0.6-0.6,1.5,0,2.1l0.6,0.6
	c0.2,0.2,0.2,0.5,0,0.7L2.6,6.6l0.7,0.7L4.6,6.1z M9.6,6.1c0.6-0.6,0.6-1.5,0-2.1L9.1,3.4c-0.2-0.2-0.2-0.5,0-0.7l1.3-1.3L9.6,0.6
	L8.4,1.9c-0.6,0.6-0.6,1.5,0,2.1l0.6,0.6c0.2,0.2,0.2,0.5,0,0.7L7.6,6.6l0.7,0.7L9.6,6.1z M14.6,6.1c0.6-0.6,0.6-1.5,0-2.1l-0.6-0.6
	c-0.2-0.2-0.2-0.5,0-0.7l1.3-1.3l-0.7-0.7l-1.3,1.3c-0.6,0.6-0.6,1.5,0,2.1l0.6,0.6c0.2,0.2,0.2,0.5,0,0.7l-1.3,1.3l0.7,0.7
	L14.6,6.1z M19.6,6.1c0.6-0.6,0.6-1.5,0-2.1l-0.6-0.6c-0.2-0.2-0.2-0.5,0-0.7l1.3-1.3l-0.7-0.7l-1.3,1.3c-0.6,0.6-0.6,1.5,0,2.1
	l0.6,0.6c0.2,0.2,0.2,0.5,0,0.7l-1.3,1.3l0.7,0.7L19.6,6.1z"/>
</svg>
