<?xml version="1.0" encoding="utf-8"?>
<!-- Generator: Adobe Illustrator 24.1.2, SVG Export Plug-In . SVG Version: 6.00 Build 0)  -->
<svg version="1.1" id="Layer_1" xmlns="http://www.w3.org/2000/svg" xmlns:xlink="http://www.w3.org/1999/xlink" x="0px" y="0px"
	 viewBox="0 0 24 24" style="enable-background:new 0 0 24 24;" xml:space="preserve">
<style type="text/css">
	.st0{fill-rule:evenodd;clip-rule:evenodd;fill:#535DFF;}
</style>
<path class="st0" d="M18,20.5c1.5-0.9,2-1.8,2-2.5s-0.5-1.6-2-2.5c-1.4-0.9-3.6-1.5-6-1.5c-2.5,0-4.6,0.6-6,1.5
	c-1.5,0.9-2,1.8-2,2.5s0.5,1.6,2,2.5c1.4,0.9,3.6,1.5,6,1.5C14.5,22,16.6,21.4,18,20.5z M12,24c5.5,0,10-2.7,10-6s-4.5-6-10-6
	c-5.5,0-10,2.7-10,6S6.5,24,12,24z M9,0h6c0.6,0,1,0.4,1,1l0,0c0,0.6-0.4,1-1,1H9C8.4,2,8,1.6,8,1l0,0C8,0.4,8.4,0,9,0z M2.2,8
	C3.1,5.7,7.1,4,12,4s8.9,1.7,9.8,4c-0.2-0.1-0.3-0.2-0.5-0.2C18.8,6.7,15.5,6,12,6C8.5,6,5.2,6.7,2.7,7.8C2.5,7.9,2.4,8,2.2,8z
	 M0.7,15.3C0.2,14.7,0,14.1,0,13.5C0,10.5,5.4,8,12,8c6.6,0,12,2.5,12,5.5c0,0.6-0.2,1.2-0.7,1.8c-0.3-0.7-0.8-1.2-1.3-1.8
	c0,0,0,0,0,0c0-0.3-0.3-1.1-2.3-2.1C17.8,10.6,15.1,10,12,10s-5.8,0.6-7.7,1.4c-2,0.9-2.3,1.8-2.3,2.1c0,0,0,0,0,0
	C1.5,14.1,1,14.6,0.7,15.3z M17.7,18.3C16,18.8,14.1,19,12,19c-2.1,0-4-0.2-5.7-0.7C6.2,18.2,6.1,18.1,6,18c0.1-0.1,0.3-0.4,0.9-0.8
	c0.3-0.2,0.7-0.4,1.1-0.5C9.3,16.9,10.6,17,12,17c1.4,0,2.7-0.1,3.9-0.3c0.4,0.2,0.8,0.3,1.1,0.5c0.6,0.4,0.9,0.7,0.9,0.8
	C17.9,18.1,17.8,18.2,17.7,18.3z"/>
</svg>
