<svg width="24" height="24" viewBox="0 0 24 24" fill="none" xmlns="http://www.w3.org/2000/svg">
	<circle cx="12" cy="12" r="5" fill="white" />
	<path fill-rule="evenodd" clip-rule="evenodd" d="M7.80783 17.6064C7.27174 17.2049 6.79513 16.7283 6.39362 16.1922L4.29289 18.2929L5.70711 19.7071L7.80783 17.6064ZM11 18.9291C11.3266 18.9759 11.6605 19 12 19C12.3395 19 12.6734 18.9759 13 18.9291V22H11V18.9291ZM16.1922 17.6064L18.2929 19.7071L19.7071 18.2929L17.6064 16.1922C17.2049 16.7283 16.7283 17.2049 16.1922 17.6064ZM18.9291 13H22V11H18.9291C18.9759 11.3266 19 11.6605 19 12C19 12.3395 18.9759 12.6734 18.9291 13ZM17.6064 7.80783L19.7071 5.70712L18.2929 4.29291L16.1922 6.39362C16.7283 6.79513 17.2049 7.27174 17.6064 7.80783ZM13 5.07091V2H11V5.07091C11.3266 5.0242 11.6605 5.00002 12 5.00002C12.3395 5.00002 12.6734 5.0242 13 5.07091ZM7.80785 6.39364L5.70711 4.29291L4.29289 5.70712L6.39364 7.80786C6.79515 7.27176 7.27175 6.79516 7.80785 6.39364ZM5.07092 11H2V13H5.07091C5.0242 12.6734 5.00002 12.3395 5.00002 12C5.00002 11.6605 5.0242 11.3266 5.07092 11Z" fill="white" />
</svg>
