<svg width="24" height="24" viewBox="0 0 24 24" fill="none" xmlns="http://www.w3.org/2000/svg">
<path d="M9.86328 12.502C9.86328 13.6465 9.5918 14.5352 9.04883 15.168C8.50977 15.8008 7.75977 16.1172 6.79883 16.1172C5.8418 16.1172 5.08984 15.8047 4.54297 15.1797C3.99609 14.5508 3.71875 13.6719 3.71094 12.543V11.084C3.71094 9.91211 3.98242 8.99805 4.52539 8.3418C5.06836 7.68164 5.82227 7.35156 6.78711 7.35156C7.73633 7.35156 8.48438 7.67578 9.03125 8.32422C9.57812 8.96875 9.85547 9.875 9.86328 11.043V12.502ZM8.13477 11.0723C8.13477 10.3027 8.02539 9.73047 7.80664 9.35547C7.58789 8.98047 7.24805 8.79297 6.78711 8.79297C6.33008 8.79297 5.99219 8.97461 5.77344 9.33789C5.55469 9.69727 5.44141 10.2461 5.43359 10.9844V12.502C5.43359 13.248 5.54492 13.7988 5.76758 14.1543C5.99023 14.5059 6.33398 14.6816 6.79883 14.6816C7.24805 14.6816 7.58203 14.5098 7.80078 14.166C8.01953 13.8184 8.13086 13.2812 8.13477 12.5547V11.0723Z" fill="#535DFF"/>
<path d="M15.5 12.5195H12.8223V16H11.0996V7.46875H15.8223V8.9043H12.8223V11.0898H15.5V12.5195Z" fill="#535DFF"/>
<path d="M21.207 12.5195H18.5293V16H16.8066V7.46875H21.5293V8.9043H18.5293V11.0898H21.207V12.5195Z" fill="#535DFF"/>
</svg>
