<?xml version="1.0" encoding="utf-8"?>
<!-- Generator: Adobe Illustrator 24.1.2, SVG Export Plug-In . SVG Version: 6.00 Build 0)  -->
<svg version="1.1" id="Layer_1" xmlns="http://www.w3.org/2000/svg" xmlns:xlink="http://www.w3.org/1999/xlink" x="0px" y="0px"
	 viewBox="0 0 24 24" style="enable-background:new 0 0 24 24;" xml:space="preserve">
<style type="text/css">
	.st0{fill:#535DFF;}
</style>
<path class="st0" d="M21.4,4.1L24,1.4L22.6,0l-2.7,2.7l-0.7-0.7c-1.1-1.1-3.1-1.1-4.2,0l-4.2,4.2l7.1,7.1L22.1,9
	c1.2-1.2,1.2-3.1,0-4.2L21.4,4.1z M20.7,7.6l-2.8,2.8l-4.2-4.2l2.8-2.8c0.4-0.4,1-0.4,1.4,0l2.8,2.8C21,6.6,21,7.2,20.7,7.6z
	 M15.2,14.4L13.8,13l-2.7,2.7l-2.6-2.6l2.7-2.7L9.8,9l-2.7,2.7l-1-1L1.9,15c-0.6,0.6-0.9,1.3-0.9,2.1c0,0.8,0.3,1.6,0.9,2.1l0.7,0.7
	L0,22.6L1.4,24l2.7-2.7l0.7,0.7c0.6,0.6,1.4,0.9,2.1,0.9c0.8,0,1.5-0.3,2.1-0.9l4.2-4.2l-0.7-0.7L15.2,14.4z M7.6,20.7
	c-0.4,0.4-1,0.4-1.4,0l-2.8-2.8c-0.2-0.2-0.3-0.4-0.3-0.7c0-0.3,0.1-0.5,0.3-0.7l2.8-2.8l4.2,4.2L7.6,20.7z"/>
</svg>
