<?xml version="1.0" encoding="utf-8"?>
<!-- Generator: Adobe Illustrator 24.1.0, SVG Export Plug-In . SVG Version: 6.00 Build 0)  -->
<svg version="1.1" id="Layer_1" xmlns="http://www.w3.org/2000/svg" xmlns:xlink="http://www.w3.org/1999/xlink" x="0px" y="0px"
	 viewBox="0 0 24 24" style="enable-background:new 0 0 24 24;" xml:space="preserve">
<style type="text/css">
	.st0{fill:#535DFF;}
</style>
<path class="st0" d="M15.1,24l-5.9,0c0,0-0.1,0-0.1,0c0,0-0.1,0-0.1,0c-0.1,0-0.2,0-0.3-0.1c-0.8-0.2-1.4-1-1.5-1.8l0-0.1
	c0-0.4,0-1.2-0.4-1.5c-1-1-1.8-2.4-2.6-4.1c-0.5-1.2-0.8-2.2-0.9-2.5c0-0.1,0-0.2-0.1-0.3C3.1,11.7,3,9.4,3,8.5
	c0.1-1.1,0.9-1.9,2-1.9c0.7,0,1.3,0.2,1.8,0.5c0-1.8,0-3.3,0-3.4c0-0.8,0-1.6,0.4-2.3c0.2-0.5,0.6-0.9,1.1-1.2C8.6,0.1,9,0,9.5,0
	c0.1,0,0.4,0,0.8,0.1c0.5,0.2,1,0.5,1.3,1c0.2,0.3,0.4,0.7,0.5,1.1c0.1,0.3,0.1,0.7,0.1,1.1l0.1,3.6c0.5,0.1,1,0.3,1.4,0.7
	c0.6-0.1,1.3,0,1.7,0.3C15.7,8,16,8.2,16.2,8.5c0,0,0.1,0,0.1,0C17.2,8.5,18,9,18.4,9.7c0.4,0.6,0.5,1.3,0.5,1.8
	c0.2,4,0,5.7-0.7,8.6l0,0.2c0,0.2,0,0.4,0,0.7l0,0.6c0,0.3,0,0.6,0,0.7c0,0,0,0,0,0c-0.1,0.8-0.6,1.5-1.4,1.7
	c-0.1,0-0.2,0.1-0.2,0.1c0,0-0.1,0-0.1,0c0,0-0.1,0-0.1,0c0,0-0.1,0-0.1,0L15.1,24z M5,8.6c0,0.7,0.1,2.6,0.2,4.7
	c0,0.2,0.3,1.1,0.8,2.2c0.6,1.4,1.4,2.6,2.2,3.5c0.8,0.9,0.9,2.2,0.9,2.8l0,0.1c0,0,0.1,0,0.1,0l6.8,0c0,0,0.1,0,0.1,0
	c0-0.1,0-0.3,0-0.6l0-0.6c0-0.3,0-0.5,0-0.7l0-0.3c0,0,0-0.1,0-0.2c0.6-2.8,0.8-4.3,0.6-8.2c0-0.2,0-0.6-0.2-0.8
	c0-0.1-0.2-0.2-0.5-0.3c-0.1,0-0.2,0-0.3,0c-0.5,0.1-1-0.1-1.2-0.6c-0.1-0.1-0.1-0.2-0.2-0.2c-0.2-0.1-0.5-0.2-0.8,0
	c-0.5,0.2-1,0-1.3-0.4c0,0-0.1-0.1-0.1-0.1c-0.2-0.2-0.4-0.2-0.6-0.2c-0.1,0-0.1,0-0.2,0c-0.3,0.1-0.6,0-0.9-0.1
	c-0.3-0.2-0.4-0.5-0.4-0.8l-0.2-4.6c0-0.3-0.1-0.6-0.1-0.8c0-0.2-0.1-0.3-0.2-0.4C9.9,2.1,9.8,2,9.8,2C9.7,2,9.6,2,9.5,2
	C9.4,2,9.3,2,9.2,2.1c0,0-0.1,0.1-0.2,0.2C8.8,2.6,8.8,3.2,8.8,3.7c0,0.3,0,5.6,0,8.3c0,0.4-0.3,0.8-0.7,0.9c-0.4,0.1-0.8,0-1.1-0.3
	l-0.3-0.3c-0.2-0.2-0.3-0.5-0.3-0.7c0-0.6,0-1.1-0.1-1.5C6.3,9.6,6.2,9.3,6,9C5.8,8.9,5.6,8.7,5,8.6z"/>
</svg>
