<svg width="24" height="24" viewBox="0 0 24 24" fill="none" xmlns="http://www.w3.org/2000/svg">
<path d="M4 13H10V20C10 20.5523 9.55228 21 9 21H5C4.44772 21 4 20.5523 4 20V13Z" fill="black"/>
<path d="M14 13H20V20C20 20.5523 19.5523 21 19 21H15C14.4477 21 14 20.5523 14 20V13Z" fill="black"/>
<path d="M11.63 3.40697C11.8284 3.18875 12.1716 3.18875 12.37 3.40697L21.2397 13.1637C21.5317 13.4848 21.3038 14 20.8697 14H3.13028C2.6962 14 2.46832 13.4848 2.76031 13.1637L11.63 3.40697Z" fill="black"/>
<path d="M19 9.19238V4C19 3.44775 18.5522 3 18 3H16C15.4478 3 15 3.44775 15 4V4.85889L19 9.19238Z" fill="black"/>
<rect x="10" y="13" width="4" height="2" fill="black"/>
</svg>
