<?xml version="1.0" encoding="utf-8"?>
<!-- Generator: Adobe Illustrator 24.1.0, SVG Export Plug-In . SVG Version: 6.00 Build 0)  -->
<svg version="1.1" id="Layer_1" xmlns="http://www.w3.org/2000/svg" xmlns:xlink="http://www.w3.org/1999/xlink" x="0px" y="0px"
	 viewBox="0 0 24 24" style="enable-background:new 0 0 24 24;" xml:space="preserve">
<style type="text/css">
	.st0{fill:#535DFF;}
</style>
<path class="st0" d="M17,5h2c0.6,0,1,0.4,1,1l0,0c0,0.6-0.4,1-1,1h-2c-0.6,0-1-0.4-1-1l0,0C16,5.4,16.4,5,17,5z M5,5h9
	c0.6,0,1,0.4,1,1l0,0c0,0.6-0.4,1-1,1H5C4.4,7,4,6.6,4,6l0,0C4,5.4,4.4,5,5,5z M15,3h1c0.6,0,1,0.4,1,1v4c0,0.6-0.4,1-1,1h-1
	c-0.6,0-1-0.4-1-1V4C14,3.4,14.4,3,15,3z M10,11h9c0.6,0,1,0.4,1,1l0,0c0,0.6-0.4,1-1,1h-9c-0.6,0-1-0.4-1-1l0,0
	C9,11.4,9.4,11,10,11z M5,11h2c0.6,0,1,0.4,1,1l0,0c0,0.6-0.4,1-1,1H5c-0.6,0-1-0.4-1-1l0,0C4,11.4,4.4,11,5,11z M8,9h1
	c0.6,0,1,0.4,1,1v4c0,0.6-0.4,1-1,1H8c-0.6,0-1-0.4-1-1v-4C7,9.4,7.4,9,8,9z M15,17h4c0.6,0,1,0.4,1,1l0,0c0,0.6-0.4,1-1,1h-4
	c-0.6,0-1-0.4-1-1l0,0C14,17.4,14.4,17,15,17z M5,17h7c0.6,0,1,0.4,1,1l0,0c0,0.6-0.4,1-1,1H5c-0.6,0-1-0.4-1-1l0,0
	C4,17.4,4.4,17,5,17z M13,15h1c0.6,0,1,0.4,1,1v4c0,0.6-0.4,1-1,1h-1c-0.6,0-1-0.4-1-1v-4C12,15.4,12.4,15,13,15z"/>
</svg>
