<?xml version="1.0" encoding="utf-8"?>
<!-- Generator: Adobe Illustrator 24.1.0, SVG Export Plug-In . SVG Version: 6.00 Build 0)  -->
<svg version="1.1" id="Layer_1" xmlns="http://www.w3.org/2000/svg" xmlns:xlink="http://www.w3.org/1999/xlink" x="0px" y="0px"
	 viewBox="0 0 24 24" style="enable-background:new 0 0 24 24;" xml:space="preserve">
<style type="text/css">
	.st0{fill:#535DFF;}
</style>
<path class="st0" d="M12,23.9l-2.9-4.4c0,0-0.1-0.1-0.1-0.1c-0.1,0-0.1,0-0.2,0l-5.2,1l1-5.2c0,0,0-0.1,0-0.2c0-0.1-0.1-0.1-0.1-0.1
	L0.1,12l4.4-2.9c0,0,0.1-0.1,0.1-0.1c0-0.1,0-0.1,0-0.2l-1-5.2l5.2,1c0,0,0.1,0,0.2,0C9,4.6,9,4.5,9.1,4.5L12,0.1l2.9,4.4
	c0,0,0.1,0.1,0.1,0.1c0.1,0,0.1,0,0.2,0l5.2-1l-1,5.2c0,0,0,0.1,0,0.2c0,0.1,0.1,0.1,0.1,0.1l4.4,2.9l-4.4,2.9c0,0-0.1,0.1-0.1,0.1
	c0,0.1,0,0.1,0,0.2l1,5.2l-5.2-1c0,0-0.1,0-0.2,0c-0.1,0-0.1,0.1-0.1,0.1L12,23.9z M8.8,17.4c0.4,0,0.7,0.1,0.9,0.2
	c0.3,0.1,0.7,0.4,1,0.8l1.3,1.9l1.3-1.9c0.2-0.4,0.6-0.7,1-0.8c0.3-0.1,0.7-0.2,1.2-0.2l0.1,0l2.3,0.5l-0.5-2.3
	c-0.1-0.4,0-0.9,0.1-1.3c0.2-0.4,0.5-0.8,0.8-1l1.9-1.3l-1.9-1.3c-0.5-0.3-0.7-0.7-0.8-1c-0.1-0.3-0.2-0.8-0.1-1.3l0.5-2.3l-2.3,0.5
	c-0.6,0.1-1,0-1.3-0.1c-0.3-0.1-0.7-0.4-1-0.8L12,3.7l-1.3,1.9c-0.3,0.5-0.7,0.7-1,0.8C9.4,6.6,8.9,6.7,8.4,6.6L6.1,6.1l0.5,2.3
	c0.1,0.6,0,1-0.1,1.3c-0.1,0.3-0.4,0.7-0.8,1L3.7,12l1.9,1.3c0.5,0.3,0.7,0.7,0.8,1c0.1,0.3,0.2,0.8,0.1,1.3l-0.5,2.3l2.3-0.5
	C8.5,17.4,8.7,17.4,8.8,17.4z M12,17c-2.8,0-5-2.2-5-5c0-2.8,2.2-5,5-5s5,2.2,5,5C17,14.8,14.8,17,12,17z M12,9c-1.7,0-3,1.3-3,3
	c0,1.7,1.3,3,3,3s3-1.3,3-3C15,10.3,13.7,9,12,9z"/>
</svg>
