<svg width="24" height="24" viewBox="0 0 24 24" fill="none" xmlns="http://www.w3.org/2000/svg">
<path d="M10 2C9.80109 2 9.61032 2.08104 9.46967 2.2253C9.32902 2.36956 9.25 2.56522 9.25 2.76923C9.25 6.65923 4 9.69231 4 15.0769C4 19.1676 8.32262 21.8123 9.84473 21.9835C9.89578 21.9945 9.94782 22 10 22C10.1989 22 10.3897 21.919 10.5303 21.7747C10.671 21.6304 10.75 21.4348 10.75 21.2308C10.7499 21.1165 10.7251 21.0037 10.6772 20.9005C10.6293 20.7973 10.5596 20.7064 10.4731 20.6343C10.4731 20.6338 10.4731 20.6333 10.4731 20.6328C9.79064 20.0651 8.5 18.4182 8.5 16.9144C8.5 14.4459 10.75 13.5385 10.75 13.5385C9.46675 17.2615 13.6716 17.7114 14.5176 21.3975H14.519C14.556 21.5682 14.6485 21.7209 14.7814 21.8304C14.9143 21.9399 15.0795 21.9997 15.25 22C15.4079 21.9996 15.5617 21.9481 15.6895 21.8528C15.703 21.8427 15.7162 21.8322 15.729 21.8212C15.8511 21.7399 19 19.6039 19 15.0769C19 13.2288 18.0987 10.0542 17.4502 8.64814C17.4497 8.64698 17.4493 8.64479 17.4487 8.64363C17.4482 8.64263 17.4478 8.64162 17.4473 8.64062C17.392 8.49713 17.296 8.37398 17.1717 8.28718C17.0473 8.20037 16.9004 8.15392 16.75 8.15385C16.5748 8.15402 16.4053 8.21706 16.2707 8.33204C16.1361 8.44702 16.045 8.60669 16.0132 8.78335C16.0132 8.78436 16.0132 8.78536 16.0132 8.78636C16.0114 8.79476 15.6669 10.3639 14.5 11.2308C14.5 7.60644 11.9488 3.86278 10.6035 2.314C10.5833 2.28596 10.5613 2.25935 10.5376 2.23438C10.4678 2.16041 10.3843 2.10156 10.292 2.0613C10.1996 2.02104 10.1003 2.0002 10 2Z" fill="#535DFF"/>
</svg>
