<?xml version="1.0" encoding="utf-8"?>
<!-- Generator: Adobe Illustrator 24.1.0, SVG Export Plug-In . SVG Version: 6.00 Build 0)  -->
<svg version="1.1" id="Layer_1" xmlns="http://www.w3.org/2000/svg" xmlns:xlink="http://www.w3.org/1999/xlink" x="0px" y="0px"
	 viewBox="0 0 24 24" style="enable-background:new 0 0 24 24;" xml:space="preserve">
<style type="text/css">
	.st0{fill:#535DFF;}
</style>
<path class="st0" d="M12,24C5.4,24,0,18.6,0,12S5.4,0,12,0c6.6,0,12,5.4,12,12S18.6,24,12,24z M12,2C6.5,2,2,6.5,2,12s4.5,10,10,10
	c5.5,0,10-4.5,10-10S17.5,2,12,2z M12,11c0.6,0,1,0.4,1,1s-0.4,1-1,1s-1-0.4-1-1S11.4,11,12,11z M13,14.8c0.9-0.3,1.5-1,1.8-1.8h1
	c-0.4,1.4-1.5,2.5-2.9,2.9V14.8z M9.2,13c0.3,0.9,1,1.5,1.8,1.8v1c-1.4-0.4-2.5-1.5-2.9-2.9H9.2z M11,9.2c-0.9,0.3-1.5,1-1.8,1.8h-1
	C8.5,9.6,9.6,8.5,11,8.1V9.2z M13,9.2c0.9,0.3,1.5,1,1.8,1.8h1c-0.4-1.4-1.5-2.5-2.9-2.9V9.2z M13,7.1c2,0.4,3.5,1.9,3.9,3.9h1
	c-0.4-2.5-2.4-4.5-4.9-4.9V7.1z M11,6.1C8.5,6.5,6.5,8.5,6.1,11h1C7.5,9,9,7.5,11,7.1V6.1z M11,5.1C7.9,5.5,5.5,7.9,5.1,11h-1
	C4.5,7.4,7.4,4.5,11,4.1V5.1z M13,5.1c3.1,0.4,5.5,2.9,5.9,5.9h1c-0.5-3.6-3.3-6.5-6.9-6.9V5.1z M19.9,13h-1
	c-0.4,3.1-2.9,5.5-5.9,5.9v1C16.6,19.5,19.5,16.6,19.9,13z M11,19.9v-1c-3.1-0.4-5.5-2.9-5.9-5.9h-1C4.5,16.6,7.4,19.5,11,19.9z
	 M6.1,13c0.4,2.5,2.4,4.5,4.9,4.9v-1C9,16.5,7.5,15,7.1,13H6.1z M13,16.9v1c2.5-0.4,4.5-2.4,4.9-4.9h-1C16.5,15,15,16.5,13,16.9z"/>
</svg>
