<?xml version="1.0" encoding="utf-8"?>
<!-- Generator: Adobe Illustrator 24.1.0, SVG Export Plug-In . SVG Version: 6.00 Build 0)  -->
<svg version="1.1" id="Layer_1" xmlns="http://www.w3.org/2000/svg" xmlns:xlink="http://www.w3.org/1999/xlink" x="0px" y="0px"
	 viewBox="0 0 24 24" style="enable-background:new 0 0 24 24;" xml:space="preserve">
<style type="text/css">
	.st0{fill:#535DFF;}
</style>
<path class="st0" d="M18,16v5h-5l1.6-1.6C11.2,16.6,9,11,5.4,11c-2.1,0-3.5,1.6-3.5,4s1.4,4,3.5,4c1.7,0,2.9-1.1,4-2.4l1.2,1.6
	C9.2,19.7,7.6,21,5.4,21C2.2,21,0,18.5,0,15s2.2-6,5.4-6c4.8,0,7.3,6.4,10.6,9L18,16z M18.6,9c-2.2,0-3.8,1.3-5.3,2.8l1.2,1.6
	c1.2-1.3,2.4-2.4,4-2.4c2.1,0,3.5,1.6,3.5,4c0,1.8-0.8,3.2-2.1,3.7v2.1c2.4-0.6,4-2.8,4-5.8C24,11.5,21.8,9,18.6,9z M11.9,9h-2V2.7
	L8,3.3V1.8l3.7-1.3h0.2V9z"/>
</svg>
