<?xml version="1.0" encoding="utf-8"?>
<!-- Generator: Adobe Illustrator 25.0.0, SVG Export Plug-In . SVG Version: 6.00 Build 0)  -->
<svg version="1.1" id="Layer_1" xmlns="http://www.w3.org/2000/svg" xmlns:xlink="http://www.w3.org/1999/xlink" x="0px" y="0px"
	 viewBox="0 0 24 24" style="enable-background:new 0 0 24 24;" xml:space="preserve">
<style type="text/css">
	.st0{fill:#A6ABFF;}
	.st1{fill:#535DFF;}
</style>
<path class="st0" d="M20.5,15h-17L4,17l2.5,1.5l3,2H13l3-1l3-2L20.5,15z"/>
<path class="st1" d="M12,22C6.5,22,2,17.5,2,12C2,6.5,6.5,2,12,2c5.5,0,10,4.5,10,10C22,17.5,17.5,22,12,22z M12,4c-4.4,0-8,3.6-8,8
	s3.6,8,8,8s8-3.6,8-8S16.4,4,12,4z M11,5h2v6h-2V5z M11,12h2v2h-2V12z"/>
</svg>
