<?xml version="1.0" encoding="utf-8"?>
<!-- Generator: Adobe Illustrator 24.1.0, SVG Export Plug-In . SVG Version: 6.00 Build 0)  -->
<svg version="1.1" id="Layer_1" xmlns="http://www.w3.org/2000/svg" xmlns:xlink="http://www.w3.org/1999/xlink" x="0px" y="0px"
	 viewBox="0 0 24 24" style="enable-background:new 0 0 24 24;" xml:space="preserve">
<style type="text/css">
	.st0{fill:#535DFF;}
	.st1{fill:#A6ABFF;}
</style>
<path class="st0" d="M22.5,12H18v-2h4V4c0-0.6-0.4-1-1-1H3C2.4,3,2,3.4,2,4v6h4v2H1.5C0.7,12,0,11.3,0,10.5V4c0-1.7,1.3-3,3-3h18
	c1.7,0,3,1.3,3,3v6.5C24,11.3,23.3,12,22.5,12z"/>
<path class="st1" d="M18,12H6c-1.1,0-2-0.9-2-2s0.9-2,2-2h12c1.1,0,2,0.9,2,2S19.1,12,18,12z M16,4h4c0.6,0,1,0.4,1,1l0,0
	c0,0.6-0.4,1-1,1h-4c-0.6,0-1-0.4-1-1l0,0C15,4.4,15.4,4,16,4z M23.9,21.4c0.2-0.5,0-1.1-0.4-1.3L22,19.4c-1.4-0.7-2.5-1.9-3-3.5
	l-0.1-0.2c-0.2-0.5-0.7-0.8-1.3-0.6c-0.5,0.2-0.8,0.7-0.6,1.3l0.1,0.3c0.7,2,2.1,3.7,4,4.6l1.4,0.7C22.7,22,22.8,22,23,22
	C23.4,22,23.7,21.8,23.9,21.4z M17.2,22.2c0.4-0.4,0.4-1,0-1.4l-0.4-0.4c-1.1-1.1-1.8-2.6-1.8-4.2V16c0-0.6-0.4-1-1-1s-1,0.4-1,1
	v0.1c0,2.1,0.8,4.1,2.3,5.7l0.4,0.4c0.2,0.2,0.5,0.3,0.7,0.3S17,22.4,17.2,22.2z M1.4,21.9l1.4-0.7c1.9-1,3.3-2.6,4-4.6l0.1-0.2
	c0.2-0.5-0.1-1.1-0.6-1.3c-0.5-0.2-1.1,0.1-1.3,0.6L5,15.9c-0.5,1.5-1.6,2.8-3,3.5l-1.4,0.7c-0.5,0.2-0.7,0.8-0.4,1.3
	C0.3,21.8,0.6,22,1,22C1.2,22,1.3,22,1.4,21.9z M8.2,22.2l0.5-0.4c1.5-1.5,2.3-3.5,2.3-5.7V16c0-0.6-0.4-1-1-1s-1,0.4-1,1v0.1
	c0,1.6-0.6,3.1-1.8,4.2l-0.4,0.4c-0.4,0.4-0.4,1,0,1.4c0.2,0.2,0.5,0.3,0.7,0.3C7.8,22.5,8,22.4,8.2,22.2z"/>
</svg>
