<?xml version="1.0" encoding="utf-8"?>
<!-- Generator: Adobe Illustrator 24.1.2, SVG Export Plug-In . SVG Version: 6.00 Build 0)  -->
<svg version="1.1" id="Layer_1" xmlns="http://www.w3.org/2000/svg" xmlns:xlink="http://www.w3.org/1999/xlink" x="0px" y="0px"
	 viewBox="0 0 24 24" style="enable-background:new 0 0 24 24;" xml:space="preserve">
<style type="text/css">
	.st0{fill:#2C3E50;}
</style>
<path class="st0" d="M22,12c0-5.3-4.1-9.6-9.2-10c-0.1,0-0.3,0-0.4,0c-0.1,0-0.2,0-0.3,0c-0.1,0-0.2,0-0.3,0c-0.1,0-0.3,0-0.4,0
	C6.1,2.4,2,6.7,2,12c0,5.3,4.1,9.6,9.2,10c0.1,0,0.2,0,0.3,0c0,0,0.1,0,0.1,0c0.1,0,0.2,0,0.4,0s0.2,0,0.4,0c0,0,0.1,0,0.1,0
	c0.1,0,0.2,0,0.3,0C17.9,21.6,22,17.3,22,12z M10.1,14c-0.1-0.7-0.1-1.3-0.1-2c0-0.7,0-1.3,0.1-2h3.9c0.1,0.7,0.1,1.3,0.1,2
	c0,0.7,0,1.3-0.1,2H10.1z M13.6,16c-0.3,1.3-0.9,2.6-1.6,3.9c-0.7-1.2-1.2-2.5-1.6-3.9H13.6z M4,12c0-0.7,0.1-1.4,0.3-2H8
	c-0.1,0.7-0.1,1.3-0.1,2c0,0.7,0,1.3,0.1,2H4.3C4.1,13.4,4,12.7,4,12z M10.4,8c0.3-1.3,0.9-2.6,1.6-3.9c0.7,1.2,1.2,2.5,1.6,3.9
	H10.4z M16,10h3.8c0.2,0.6,0.3,1.3,0.3,2c0,0.7-0.1,1.4-0.3,2H16c0.1-0.7,0.1-1.3,0.1-2C16.1,11.3,16,10.7,16,10z M18.9,8h-3.3
	c-0.3-1.3-0.7-2.5-1.3-3.6C16.3,5,17.9,6.3,18.9,8z M9.6,4.4C9.1,5.5,8.7,6.7,8.4,8H5.1C6.1,6.3,7.7,5,9.6,4.4z M5.1,16h3.3
	c0.3,1.3,0.7,2.5,1.3,3.6C7.7,19,6.1,17.7,5.1,16z M14.4,19.6c0.5-1.2,1-2.4,1.3-3.6h3.3C17.9,17.7,16.3,19,14.4,19.6z"/>
</svg>
