<?xml version="1.0" encoding="utf-8"?>
<!-- Generator: Adobe Illustrator 24.0.3, SVG Export Plug-In . SVG Version: 6.00 Build 0)  -->
<svg version="1.1" id="Layer_1" xmlns="http://www.w3.org/2000/svg" xmlns:xlink="http://www.w3.org/1999/xlink" x="0px" y="0px"
	 viewBox="0 0 24 24" style="enable-background:new 0 0 24 24;" xml:space="preserve">
<style type="text/css">
	.st0{fill:#535DFF;}
	.st1{fill-rule:evenodd;clip-rule:evenodd;fill:#A6ABFF;}
</style>
<path class="st0" d="M12,23c-3.3,0-6-2.7-6-6c0-1.6,0.7-3.2,1.9-4.4c0.2-0.2,0.6-0.6,0.6-1.1v-7C8.5,2.6,10.1,1,12,1
	s3.5,1.6,3.5,3.5v7c0,0.5,0.4,0.9,0.6,1.1c1.2,1.1,1.9,2.7,1.9,4.4C18,20.3,15.3,23,12,23z M12,3c-0.8,0-1.5,0.7-1.5,1.5v7
	c0,0.9-0.4,1.8-1.2,2.6C8.4,14.8,8,15.9,8,17c0,2.2,1.8,4,4,4c2.2,0,4-1.8,4-4c0-1.1-0.4-2.2-1.3-2.9c-0.8-0.8-1.2-1.6-1.2-2.6v-7
	C13.5,3.7,12.8,3,12,3z"/>
<path class="st1" d="M11.5,11v0.5c0,1.5-0.8,2.6-1.6,3.3C9.4,15.4,9,16.1,9,17c0,1.7,1.3,3,3,3s3-1.3,3-3c0-0.9-0.4-1.6-0.9-2.2
	c-0.7-0.7-1.6-1.8-1.6-3.3V11H11.5z"/>
</svg>
