<?xml version="1.0" encoding="utf-8"?>
<!-- Generator: Adobe Illustrator 24.0.3, SVG Export Plug-In . SVG Version: 6.00 Build 0)  -->
<svg version="1.1" id="Layer_1" xmlns="http://www.w3.org/2000/svg" xmlns:xlink="http://www.w3.org/1999/xlink" x="0px" y="0px"
	 viewBox="0 0 24 24" style="enable-background:new 0 0 24 24;" xml:space="preserve">
<style type="text/css">
	.st0{fill:#535DFF;}
</style>
<path class="st0" d="M5,3h4c1.1,0,2,0.9,2,2v4c0,1.1-0.9,2-2,2H5c-1.1,0-2-0.9-2-2V5C3,3.9,3.9,3,5,3z M5,13h4c1.1,0,2,0.9,2,2v4
	c0,1.1-0.9,2-2,2H5c-1.1,0-2-0.9-2-2v-4C3,13.9,3.9,13,5,13z M15,3h4c1.1,0,2,0.9,2,2v4c0,1.1-0.9,2-2,2h-4c-1.1,0-2-0.9-2-2V5
	C13,3.9,13.9,3,15,3z M15,13h4c1.1,0,2,0.9,2,2v4c0,1.1-0.9,2-2,2h-4c-1.1,0-2-0.9-2-2v-4C13,13.9,13.9,13,15,13z"/>
</svg>
