<?xml version="1.0" encoding="utf-8"?>
<!-- Generator: Adobe Illustrator 24.0.3, SVG Export Plug-In . SVG Version: 6.00 Build 0)  -->
<svg version="1.1" id="Layer_1" xmlns="http://www.w3.org/2000/svg" xmlns:xlink="http://www.w3.org/1999/xlink" x="0px" y="0px"
	 viewBox="0 0 24 24" style="enable-background:new 0 0 24 24;" xml:space="preserve">
<path d="M12,9.7c-1.3,0-2.3,1-2.3,2.3s1.1,2.3,2.3,2.3s2.4-1,2.4-2.3S13.3,9.7,12,9.7z M18.2,12c0,0.3,0,0.5-0.1,0.8l1.7,1.3
	c0.2,0.1,0.2,0.3,0.1,0.5l-1.6,2.8c-0.1,0.2-0.3,0.2-0.5,0.2l-2-0.8c-0.4,0.3-0.9,0.6-1.4,0.8l-0.3,2.1c0,0.2-0.2,0.3-0.4,0.3h-3.3
	c-0.2,0-0.4-0.1-0.4-0.3l-0.3-2.1c-0.5-0.2-1-0.5-1.4-0.8l-2,0.8c-0.2,0.1-0.4,0-0.5-0.2l-1.6-2.8C4,14.5,4,14.2,4.2,14.1l1.7-1.3
	c0-0.3-0.1-0.5-0.1-0.8s0-0.5,0.1-0.8L4.2,9.9C4,9.8,4,9.6,4.1,9.4l1.6-2.8C5.8,6.4,6,6.4,6.2,6.4l2,0.8c0.4-0.3,0.9-0.6,1.4-0.8
	l0.3-2.1C10,4.1,10.2,4,10.4,4h3.3c0.2,0,0.4,0.1,0.4,0.3l0.3,2.1c0.5,0.2,1,0.5,1.4,0.8l2-0.8c0.2-0.1,0.4,0,0.5,0.2l1.6,2.8
	C20,9.5,20,9.8,19.8,9.9l-1.7,1.3C18.1,11.5,18.2,11.7,18.2,12z"/>
</svg>
