<?xml version="1.0" encoding="utf-8"?>
<!-- Generator: Adobe Illustrator 24.1.0, SVG Export Plug-In . SVG Version: 6.00 Build 0)  -->
<svg version="1.1" id="Layer_1" xmlns="http://www.w3.org/2000/svg" xmlns:xlink="http://www.w3.org/1999/xlink" x="0px" y="0px"
	 viewBox="0 0 24 24" style="enable-background:new 0 0 24 24;" xml:space="preserve">
<style type="text/css">
	.st0{fill:#A6ABFF;}
	.st1{fill:#535DFF;}
</style>
<path class="st0" d="M15,17H9c-0.6,0-1,0.4-1,1v2.2C8,20.7,8.3,21,8.8,21c0.1,0,0.3,0.1,0.3,0.2l0.6,1.2c0.2,0.3,0.5,0.6,0.9,0.6
	h2.8c0.4,0,0.7-0.2,0.9-0.6l0.6-1.2c0.1-0.1,0.2-0.2,0.3-0.2c0.4,0,0.8-0.3,0.8-0.8V18C16,17.4,15.6,17,15,17z"/>
<path id="light" class="st1" d="M10.4,16h3.3c0.4-1.3,1.2-2.7,2.5-3.9l0,0C17.3,11,18,9.5,18,7.9C18,4.6,15.3,2,12,2S6,4.6,6,7.9
	c0,1.6,0.7,3.1,1.8,4.2C9.2,13.3,10,14.6,10.4,16z"/>
<path class="st1" d="M10.4,16h3.3c0.4-1.3,1.2-2.7,2.5-3.9l0,0C17.3,11,18,9.5,18,7.9C18,4.6,15.3,2,12,2S6,4.6,6,7.9
	c0,1.6,0.7,3.1,1.8,4.2C9.2,13.3,10,14.6,10.4,16z M9,20c0.4,0.1,0.8,0.3,1,0.7l0.6,1.2h2.8l0.6-1.2c0.2-0.4,0.6-0.7,1-0.7v-2H9V20z
	 M17.5,13.6c-0.9,0.8-1.5,1.7-1.8,2.6c0.8,0.3,1.3,1,1.3,1.9v2.2c0,0.8-0.6,1.5-1.4,1.7l-0.5,0.9c-0.3,0.7-1,1.1-1.8,1.1h-2.8
	c-0.8,0-1.4-0.4-1.8-1.1L8.4,22C7.6,21.8,7,21.1,7,20.2V18c0-0.9,0.5-1.6,1.3-1.9c-0.3-0.9-0.9-1.7-1.8-2.6C4.9,12.1,4,10,4,7.9
	C4,3.5,7.6,0,12,0s8,3.5,8,7.9C20,10,19.1,12.1,17.5,13.6z"/>
</svg>
