<svg width="24" height="24" viewBox="0 0 24 24" fill="none" xmlns="http://www.w3.org/2000/svg">
<path d="M22.9698 0.000478719C22.9147 0.00245134 22.8598 0.00897869 22.8058 0.0199939L20.3078 0.519582C20.0901 0.55704 19.8909 0.665589 19.7414 0.828258C19.592 0.990928 19.5006 1.19855 19.4816 1.41865C19.4627 1.63875 19.5172 1.85893 19.6367 2.04476C19.7561 2.23059 19.9338 2.3716 20.1419 2.44573L17.3961 5.19151C16.9799 5.07677 16.5509 4.99636 16.0983 4.99636C13.5094 4.99636 12.0098 7.2445 12.0098 7.2445C12.0098 7.2445 10.5101 4.99636 7.92121 4.99636C5.21237 4.99636 3.01691 7.19075 3.01691 9.90052C3.01691 12.2541 4.38689 14.5505 6.07112 16.5162L4.60159 17.9856H3.01691C2.88455 17.9838 2.75316 18.0084 2.63035 18.0578C2.50755 18.1072 2.39578 18.1805 2.30155 18.2735C2.20732 18.3664 2.13249 18.4772 2.08142 18.5993C2.03035 18.7214 2.00405 18.8525 2.00405 18.9848C1.73905 18.9848 1.48491 19.0901 1.29753 19.2775C1.11015 19.4649 1.00487 19.719 1.00484 19.984C0.872574 19.9833 0.741475 20.0088 0.619149 20.0591C0.496822 20.1094 0.385703 20.1835 0.292233 20.2771C0.198763 20.3707 0.124804 20.4819 0.0746433 20.6043C0.0244827 20.7267 -0.00088083 20.8578 2.33501e-05 20.9901C0.00092753 21.1224 0.0280814 21.2531 0.0799105 21.3748C0.13174 21.4965 0.207213 21.6067 0.301953 21.699C0.396693 21.7913 0.508816 21.8639 0.631819 21.9125C0.754822 21.9612 0.886258 21.9849 1.0185 21.9823H2.01771V22.9815C2.01517 23.1138 2.03891 23.2452 2.08755 23.3682C2.13619 23.4912 2.20877 23.6033 2.30107 23.6981C2.39337 23.7928 2.50357 23.8683 2.62526 23.9201C2.74696 23.9719 2.87773 23.9991 3.01 24C3.14227 24.0009 3.2734 23.9755 3.39579 23.9254C3.51818 23.8752 3.6294 23.8012 3.72299 23.7078C3.81658 23.6143 3.89068 23.5032 3.941 23.3809C3.99132 23.2585 4.01685 23.1275 4.01612 22.9952C4.28111 22.9952 4.53525 22.8899 4.72263 22.7025C4.91001 22.5151 5.0153 22.261 5.01532 21.996C5.14769 21.996 5.27874 21.9697 5.40087 21.9186C5.52299 21.8676 5.63375 21.7927 5.72671 21.6985C5.81967 21.6043 5.89299 21.4925 5.9424 21.3697C5.9918 21.2469 6.01632 21.1155 6.01453 20.9832V19.3985L8.7194 16.6937C8.74335 16.6708 8.76615 16.6467 8.78771 16.6215C8.78967 16.6189 8.79162 16.6163 8.79356 16.6137L13.1241 12.2833C13.5148 11.8926 14.1463 11.8926 14.537 12.2833C14.9277 12.674 14.9277 13.3055 14.537 13.6962L8.88724 19.3458C9.72157 20.0812 10.5026 20.7057 11.1081 21.1803C11.1081 21.1803 11.5052 21.4828 12.0098 21.4828C12.5143 21.4828 12.9114 21.1803 12.9114 21.1803C15.4404 19.1969 21.0026 14.6516 21.0026 9.90052C21.0026 8.39601 20.3121 7.06688 19.2462 6.16727L21.5549 3.85862C21.629 4.06673 21.77 4.24441 21.9559 4.36388C22.1417 4.48334 22.3619 4.53786 22.582 4.51891C22.8021 4.49995 23.0097 4.40859 23.1724 4.25911C23.3351 4.10964 23.4436 3.91047 23.4811 3.69275L23.9807 1.19481C24.0101 1.0473 24.0059 0.895047 23.9683 0.749408C23.9306 0.60377 23.8606 0.468501 23.7635 0.35369C23.6663 0.238878 23.5444 0.147485 23.407 0.0863273C23.2696 0.0251692 23.1201 -0.00417644 22.9698 0.000478719Z" fill="#535DFF"/>
</svg>
