<svg width="24" height="24" viewBox="0 0 24 24" fill="none" xmlns="http://www.w3.org/2000/svg">
<path fill-rule="evenodd" clip-rule="evenodd" d="M13.0607 1.64637C12.4749 1.06058 11.5251 1.06059 10.9393 1.64637L2.14645 10.4393C1.25168 11.334 1.80423 12.8302 3 12.9866V20.9999C3 22.1045 3.89543 22.9999 5 22.9999H19C20.1046 22.9999 21 22.1045 21 20.9999V12.9866C22.1958 12.8302 22.7483 11.334 21.8536 10.4393L20 8.58571V2.99992C20 2.44768 19.5522 1.99992 19 1.99992H17C16.4478 1.99992 16 2.44768 16 2.99992V4.58571L13.0607 1.64637ZM16 20.9999H19V12.9999H5V20.9999H8V15H16V20.9999ZM14 20.9999H10V17H14V20.9999ZM19.5858 10.9999L12 3.41414L4.41422 10.9999H19.5858Z" fill="black"/>
</svg>
