<?xml version="1.0" encoding="utf-8"?>
<!-- Generator: Adobe Illustrator 24.1.0, SVG Export Plug-In . SVG Version: 6.00 Build 0)  -->
<svg version="1.1" id="Layer_1" xmlns="http://www.w3.org/2000/svg" xmlns:xlink="http://www.w3.org/1999/xlink" x="0px" y="0px"
	 viewBox="0 0 24 24" style="enable-background:new 0 0 24 24;" xml:space="preserve">
<style type="text/css">
	.st0{fill-rule:evenodd;clip-rule:evenodd;fill:#A6ABFF;}
	.st1{fill:#535DFF;}
</style>
<path class="st0" d="M12,3H3v2h3.3C7.9,3.7,9.9,3,12,3z M17.7,5H21V3h-9C14.1,3,16.1,3.7,17.7,5z M4.5,7H3v2h0.5
	C3.8,8.3,4.1,7.6,4.5,7z M20.5,9c-0.3-0.7-0.6-1.4-1-2H21v2H20.5z M3.5,15H3v2h1.5C4.1,16.4,3.8,15.7,3.5,15z M19.5,17
	c0.4-0.6,0.8-1.3,1-2H21v2H19.5z M6.3,19H3v2h9h9v-2h-3.3c-1.5,1.3-3.5,2-5.7,2S7.9,20.3,6.3,19z"/>
<path id="fan" class="st1" d="M12,20c2.7,0,4-1.4,4-3.3c0-1.4-0.8-3.2-2.3-4.7H20c0-2.7-1.4-4-3.3-4c-1.4,0-3.2,0.8-4.7,2.3V4
	C9.3,4,8,5.4,8,7.3c0,1.5,0.8,3.2,2.3,4.7H4c0,2.7,1.5,4,3.3,4c1.5,0,3.2-0.8,4.7-2.3L12,20L12,20z"/>
<path id="var" class="st1" d="M20,24H4c-2.2,0-4-1.8-4-4V4c0-2.2,1.8-4,4-4h16c2.2,0,4,1.8,4,4v16C24,22.2,22.2,24,20,24z M4,2
	C2.9,2,2,2.9,2,4v16c0,1.1,0.9,2,2,2h16c1.1,0,2-0.9,2-2V4c0-1.1-0.9-2-2-2H4z M20,3c0.6,0,1,0.4,1,1s-0.4,1-1,1s-1-0.4-1-1
	S19.4,3,20,3z M4,3c0.6,0,1,0.4,1,1S4.6,5,4,5S3,4.6,3,4S3.4,3,4,3z M20,19c0.6,0,1,0.4,1,1s-0.4,1-1,1s-1-0.4-1-1S19.4,19,20,19z
	 M4,19c0.6,0,1,0.4,1,1s-0.4,1-1,1s-1-0.4-1-1S3.4,19,4,19z"/>
</svg>
