<svg width="24" height="24" viewBox="0 0 24 24" fill="none" xmlns="http://www.w3.org/2000/svg">
<path d="M9.23077 1V1.91667C9.23077 2.92958 10.0569 3.75 11.0769 3.75V8.33333H12.9231V3.75C13.9431 3.75 14.7692 2.92958 14.7692 1.91667V1H9.23077ZM2.76923 10.1667C2.03479 10.1667 1.33042 10.4564 0.811089 10.9721C0.291757 11.4878 0 12.1873 0 12.9167C0.000802547 13.4847 0.178712 14.0385 0.509284 14.5021C0.839855 14.9657 1.30687 15.3162 1.84615 15.5055V15.6667C1.84615 18.5777 4.16865 20.9216 7.05649 21.1004C7.16088 21.1422 7.27209 21.1646 7.38462 21.1667C7.49836 21.1651 7.61082 21.1426 7.71635 21.1004C9.49824 20.9889 11.0623 20.0519 12 18.6673C12.9384 20.0522 14.5043 20.99 16.2873 21.1004C16.3917 21.1422 16.5029 21.1646 16.6154 21.1667C16.7291 21.1651 16.8416 21.1426 16.9471 21.1004C19.8333 20.9198 22.1538 18.5765 22.1538 15.6667V15.5073C22.6934 15.3179 23.1606 14.9671 23.4912 14.5032C23.8218 14.0392 23.9996 13.485 24 12.9167C24 12.1873 23.7082 11.4878 23.1889 10.9721C22.6696 10.4564 21.9652 10.1667 21.2308 10.1667C20.4963 10.1667 19.792 10.4564 19.2726 10.9721C18.7533 11.4878 18.4615 12.1873 18.4615 12.9167C18.4623 13.4847 18.6402 14.0385 18.9708 14.5021C19.3014 14.9657 19.7684 15.3162 20.3077 15.5055V15.6667C20.3077 17.702 18.665 19.3333 16.6154 19.3333C14.5658 19.3333 12.9231 17.702 12.9231 15.6667V15.5073C13.4627 15.3179 13.9299 14.9671 14.2605 14.5032C14.5911 14.0392 14.7688 13.485 14.7692 12.9167C14.7692 12.1873 14.4775 11.4878 13.9581 10.9721C13.4388 10.4564 12.7344 10.1667 12 10.1667C11.2656 10.1667 10.5612 10.4564 10.0419 10.9721C9.52253 11.4878 9.23077 12.1873 9.23077 12.9167C9.23157 13.4847 9.40948 14.0385 9.74005 14.5021C10.0706 14.9657 10.5376 15.3162 11.0769 15.5055V15.6667C11.0769 17.702 9.43419 19.3333 7.38462 19.3333C5.33504 19.3333 3.69231 17.702 3.69231 15.6667V15.5073C4.23188 15.3179 4.6991 14.9671 5.0297 14.5032C5.36029 14.0392 5.53803 13.485 5.53846 12.9167C5.53846 12.1873 5.2467 11.4878 4.72737 10.9721C4.20804 10.4564 3.50368 10.1667 2.76923 10.1667ZM12 21.1667C11.7552 21.1667 11.5204 21.2632 11.3473 21.4352C11.1742 21.6071 11.0769 21.8402 11.0769 22.0833C11.0769 22.3264 11.1742 22.5596 11.3473 22.7315C11.5204 22.9034 11.7552 23 12 23C12.2448 23 12.4796 22.9034 12.6527 22.7315C12.8258 22.5596 12.9231 22.3264 12.9231 22.0833C12.9231 21.8402 12.8258 21.6071 12.6527 21.4352C12.4796 21.2632 12.2448 21.1667 12 21.1667Z" fill="#535DFF"/>
</svg>
