<?xml version="1.0" encoding="utf-8"?>
<!-- Generator: Adobe Illustrator 24.1.2, SVG Export Plug-In . SVG Version: 6.00 Build 0)  -->
<svg version="1.1" id="Layer_1" xmlns="http://www.w3.org/2000/svg" xmlns:xlink="http://www.w3.org/1999/xlink" x="0px" y="0px"
	 viewBox="0 0 24 24" style="enable-background:new 0 0 24 24;" xml:space="preserve">
<style type="text/css">
	.st0{fill:none;stroke:#FFFFFF;stroke-width:2;}
	.st1{fill:#A6ABFF;}
	.st2{fill:#B8BCFF;}
	.st3{fill:#CACDFF;}
	.st4{fill:#DBDDFF;}
	.st5{fill:#EDEEFF;}
	.st6{fill:#FFFFFF;}
</style>
<circle class="st0" cx="12" cy="12" r="11"/>
<path class="st1" d="M12,15c0.4,0,0.6-0.3,0.6-0.6c0-0.4-0.3-0.6-0.6-0.6c-0.4,0-0.6,0.3-0.6,0.6C11.4,14.7,11.6,15,12,15z"/>
<path class="st2" d="M12,16.2c0.4,0,0.8-0.3,0.8-0.8c0-0.4-0.3-0.8-0.8-0.8c-0.4,0-0.8,0.3-0.8,0.8C11.2,15.8,11.6,16.2,12,16.2z"/>
<path class="st3" d="M12,17.3c0.5,0,0.9-0.4,0.9-0.9s-0.4-0.9-0.9-0.9s-0.9,0.4-0.9,0.9S11.5,17.3,12,17.3z"/>
<path class="st4" d="M12,18.5c0.6,0,1-0.5,1-1c0-0.6-0.5-1-1-1c-0.6,0-1,0.5-1,1C11,18,11.4,18.5,12,18.5z"/>
<path class="st5" d="M12,19.7c0.6,0,1.2-0.5,1.2-1.2c0-0.6-0.5-1.2-1.2-1.2s-1.2,0.5-1.2,1.2C10.8,19.2,11.4,19.7,12,19.7z"/>
<path class="st6" d="M12,20.8c0.7,0,1.3-0.6,1.3-1.3c0-0.7-0.6-1.3-1.3-1.3c-0.7,0-1.3,0.6-1.3,1.3C10.7,20.3,11.3,20.8,12,20.8z"/>
<path class="st1" d="M16.5,14c0.1-0.2,0-0.5-0.3-0.6c-0.2-0.1-0.5,0-0.6,0.3c-0.1,0.2,0,0.5,0.3,0.6C16.2,14.4,16.4,14.3,16.5,14z"
	/>
<path class="st2" d="M17.3,14.3c0.1-0.3,0-0.6-0.3-0.7c-0.3-0.1-0.6,0-0.7,0.3c-0.1,0.3,0,0.6,0.3,0.7
	C16.9,14.8,17.2,14.6,17.3,14.3z"/>
<path class="st3" d="M18.1,14.6c0.1-0.3,0-0.7-0.4-0.8c-0.3-0.1-0.7,0-0.8,0.4c-0.1,0.3,0,0.7,0.4,0.8C17.6,15.1,18,15,18.1,14.6z"
	/>
<path class="st4" d="M18.9,14.9c0.1-0.4-0.1-0.8-0.4-1c-0.4-0.1-0.8,0.1-1,0.4c-0.1,0.4,0.1,0.8,0.4,1S18.7,15.3,18.9,14.9z"/>
<path class="st5" d="M19.7,15.2c0.2-0.4-0.1-0.9-0.5-1.1c-0.4-0.2-0.9,0.1-1.1,0.5c-0.2,0.4,0.1,0.9,0.5,1.1
	C19,15.8,19.5,15.6,19.7,15.2z"/>
<path class="st6" d="M20.4,15.5c0.2-0.5-0.1-1-0.6-1.2s-1,0.1-1.2,0.6c-0.2,0.5,0.1,1,0.6,1.2C19.7,16.2,20.3,16,20.4,15.5z"/>
<path class="st1" d="M7.8,12.5c0.1,0.3,0.3,0.4,0.6,0.4c0.3-0.1,0.4-0.3,0.4-0.6c-0.1-0.3-0.3-0.4-0.6-0.4C7.9,12,7.8,12.3,7.8,12.5
	z"/>
<path class="st2" d="M7,12.7c0.1,0.3,0.4,0.5,0.7,0.4C8,13,8.2,12.7,8.1,12.4C8,12.1,7.7,12,7.4,12C7.1,12.1,6.9,12.4,7,12.7z"/>
<path class="st3" d="M6.2,12.9c0.1,0.4,0.4,0.6,0.8,0.5c0.4-0.1,0.6-0.4,0.5-0.8C7.4,12.2,7,12,6.7,12.1C6.3,12.2,6.1,12.5,6.2,12.9
	z"/>
<path class="st4" d="M5.4,13c0.1,0.4,0.5,0.7,0.9,0.6s0.7-0.5,0.6-0.9c-0.1-0.4-0.5-0.7-0.9-0.6C5.5,12.2,5.3,12.6,5.4,13z"/>
<path class="st5" d="M4.6,13.2c0.1,0.5,0.5,0.7,1,0.6c0.5-0.1,0.7-0.5,0.6-1c-0.1-0.5-0.5-0.7-1-0.6C4.7,12.3,4.5,12.8,4.6,13.2z"/>
<path class="st6" d="M3.7,13.4c0.1,0.5,0.6,0.8,1.1,0.7C5.3,14,5.7,13.5,5.6,13c-0.1-0.5-0.6-0.8-1.1-0.7C4,12.4,3.6,12.9,3.7,13.4z
	"/>
<path class="st1" d="M9.6,7.5C9.5,7.6,9.4,7.8,9.5,8C9.6,8.1,9.8,8.2,10,8.1c0.2-0.1,0.2-0.3,0.1-0.5C10,7.5,9.8,7.4,9.6,7.5z"/>
<path class="st2" d="M9.3,6.9C9.1,7.1,9.1,7.3,9.2,7.5c0.1,0.2,0.4,0.3,0.6,0.2C9.9,7.6,10,7.3,9.9,7.1C9.8,6.9,9.5,6.8,9.3,6.9z"/>
<path class="st3" d="M9,6.4C8.8,6.5,8.7,6.8,8.8,7.1C9,7.3,9.3,7.4,9.5,7.3c0.2-0.1,0.3-0.4,0.2-0.7C9.6,6.4,9.3,6.3,9,6.4z"/>
<path class="st4" d="M8.8,5.8C8.5,6,8.4,6.3,8.5,6.6C8.7,6.9,9,7,9.3,6.8c0.3-0.1,0.4-0.5,0.2-0.8C9.4,5.8,9,5.7,8.8,5.8z"/>
<path class="st5" d="M8.5,5.3C8.2,5.5,8,5.8,8.2,6.1C8.4,6.4,8.7,6.6,9,6.4c0.3-0.2,0.4-0.5,0.3-0.8C9.1,5.2,8.8,5.1,8.5,5.3z"/>
<path class="st6" d="M8.2,4.7C7.8,4.9,7.7,5.3,7.9,5.7C8.1,6,8.5,6.1,8.8,6C9.2,5.8,9.3,5.4,9.1,5C8.9,4.7,8.5,4.6,8.2,4.7z"/>
<path class="st1" d="M10.1,16.7c0.2,0.1,0.4,0,0.5-0.2c0.1-0.2,0-0.4-0.2-0.5c-0.2-0.1-0.4,0-0.5,0.2C9.9,16.4,9.9,16.6,10.1,16.7z"
	/>
<path class="st2" d="M9.8,17.3c0.2,0.1,0.5,0,0.6-0.2c0.1-0.2,0-0.5-0.2-0.6c-0.2-0.1-0.5,0-0.6,0.2C9.5,16.9,9.6,17.2,9.8,17.3z"/>
<path class="st3" d="M9.6,17.8c0.2,0.1,0.5,0,0.7-0.2c0.1-0.2,0-0.5-0.2-0.7c-0.2-0.1-0.5,0-0.7,0.2C9.2,17.4,9.3,17.7,9.6,17.8z"/>
<path class="st4" d="M9.3,18.4c0.3,0.1,0.6,0,0.7-0.2c0.1-0.3,0-0.6-0.2-0.7c-0.3-0.1-0.6,0-0.7,0.2C8.9,17.9,9,18.2,9.3,18.4z"/>
<path class="st5" d="M9,18.9c0.3,0.2,0.7,0,0.8-0.3c0.2-0.3,0-0.7-0.3-0.8c-0.3-0.2-0.7,0-0.8,0.3C8.6,18.4,8.7,18.8,9,18.9z"/>
<path class="st6" d="M8.7,19.5c0.3,0.2,0.8,0,0.9-0.3c0.2-0.3,0-0.8-0.3-0.9c-0.3-0.2-0.8,0-0.9,0.3S8.4,19.3,8.7,19.5z"/>
<path class="st1" d="M14.8,8.2c-0.2-0.2-0.5-0.2-0.7,0c-0.2,0.2-0.2,0.5,0,0.7c0.2,0.2,0.5,0.2,0.7,0C15,8.7,15,8.4,14.8,8.2z"/>
<path class="st2" d="M15.4,7.6c-0.2-0.2-0.6-0.2-0.8,0s-0.2,0.6,0,0.8c0.2,0.2,0.6,0.2,0.8,0C15.6,8.1,15.6,7.8,15.4,7.6z"/>
<path class="st3" d="M15.9,7c-0.3-0.2-0.7-0.2-0.9,0c-0.2,0.3-0.2,0.7,0,0.9c0.3,0.2,0.7,0.2,0.9,0S16.2,7.2,15.9,7z"/>
<path class="st4" d="M16.5,6.4c-0.3-0.3-0.8-0.3-1.1,0c-0.3,0.3-0.3,0.8,0,1.1c0.3,0.3,0.8,0.3,1.1,0C16.8,7.1,16.8,6.6,16.5,6.4z"
	/>
<path class="st5" d="M17.1,5.8c-0.3-0.3-0.9-0.3-1.2,0c-0.3,0.3-0.3,0.9,0,1.2c0.3,0.3,0.9,0.3,1.2,0C17.4,6.6,17.4,6.1,17.1,5.8z"
	/>
<path class="st6" d="M17.6,5.1c-0.4-0.4-1-0.3-1.3,0s-0.3,1,0,1.3c0.4,0.4,1,0.3,1.3,0C18,6.1,18,5.5,17.6,5.1z"/>
<path class="st1" d="M8.9,14.5c0.3,0.3,0.7,0.3,1,0.1c0.3-0.3,0.3-0.7,0.1-1c-0.3-0.3-0.7-0.3-1-0.1C8.6,13.8,8.6,14.2,8.9,14.5z"/>
<path class="st2" d="M8.3,15c0.3,0.4,0.8,0.4,1.2,0.1c0.4-0.3,0.4-0.8,0.1-1.2c-0.3-0.4-0.8-0.4-1.2-0.1C8.1,14.1,8,14.6,8.3,15z"/>
<path class="st3" d="M7.8,15.5c0.4,0.4,1,0.5,1.4,0.1c0.4-0.4,0.5-1,0.1-1.4c-0.4-0.4-1-0.5-1.4-0.1C7.5,14.4,7.4,15,7.8,15.5z"/>
<path class="st4" d="M7.2,15.9c0.4,0.5,1.1,0.5,1.6,0.1c0.5-0.4,0.5-1.1,0.1-1.6c-0.4-0.5-1.1-0.5-1.6-0.1
	C6.9,14.7,6.8,15.4,7.2,15.9z"/>
<path class="st5" d="M6.7,16.4C7.2,16.9,8,17,8.5,16.5c0.5-0.5,0.6-1.3,0.1-1.8c-0.5-0.5-1.3-0.6-1.8-0.1C6.3,15,6.2,15.8,6.7,16.4z
	"/>
<path class="st6" d="M6.2,16.8c0.5,0.6,1.4,0.7,2,0.2c0.6-0.5,0.7-1.4,0.2-2c-0.5-0.6-1.4-0.7-2-0.2C5.7,15.3,5.6,16.2,6.2,16.8z"/>
<path class="st1" d="M14.8,15.5c0.3-0.3,0.3-0.7,0.1-1c-0.3-0.3-0.7-0.3-1-0.1c-0.3,0.3-0.3,0.7-0.1,1C14,15.8,14.5,15.8,14.8,15.5z
	"/>
<path class="st2" d="M15.2,16.1c0.4-0.3,0.4-0.8,0.1-1.2c-0.3-0.4-0.8-0.4-1.2-0.1c-0.4,0.3-0.4,0.8-0.1,1.2
	C14.3,16.3,14.9,16.4,15.2,16.1z"/>
<path class="st3" d="M15.7,16.6c0.4-0.4,0.5-1,0.1-1.4c-0.4-0.4-1-0.5-1.4-0.1c-0.4,0.4-0.5,1-0.1,1.4C14.7,16.9,15.3,17,15.7,16.6z
	"/>
<path class="st4" d="M16.2,17.2c0.5-0.4,0.5-1.1,0.1-1.6c-0.4-0.5-1.1-0.5-1.6-0.1c-0.5,0.4-0.5,1.1-0.1,1.6
	C15,17.5,15.7,17.6,16.2,17.2z"/>
<path class="st5" d="M16.6,17.7c0.5-0.5,0.6-1.3,0.2-1.8c-0.5-0.5-1.3-0.6-1.8-0.2c-0.5,0.5-0.6,1.3-0.2,1.8
	C15.3,18.1,16.1,18.2,16.6,17.7z"/>
<path class="st6" d="M17.1,18.3c0.6-0.5,0.7-1.4,0.2-2c-0.5-0.6-1.4-0.7-2-0.2c-0.6,0.5-0.7,1.4-0.2,2
	C15.6,18.7,16.5,18.8,17.1,18.3z"/>
<path class="st1" d="M12,7.7c-0.4,0-0.7,0.3-0.7,0.7c0,0.4,0.3,0.7,0.7,0.7c0.4,0,0.7-0.3,0.7-0.7C12.7,8,12.4,7.7,12,7.7z"/>
<path class="st2" d="M11.9,7c-0.5,0-0.8,0.4-0.8,0.9c0,0.5,0.4,0.8,0.9,0.8s0.8-0.4,0.8-0.9C12.8,7.4,12.4,7,11.9,7z"/>
<path class="st3" d="M11.9,6.3c-0.6,0-1,0.5-1,1c0,0.6,0.5,1,1,1c0.6,0,1-0.5,1-1C12.9,6.7,12.5,6.3,11.9,6.3z"/>
<path class="st4" d="M11.9,5.6c-0.6,0-1.1,0.5-1.1,1.2c0,0.6,0.5,1.1,1.2,1.1c0.6,0,1.1-0.5,1.1-1.2C13.1,6.1,12.5,5.6,11.9,5.6z"/>
<path class="st5" d="M11.9,4.9c-0.7,0-1.3,0.6-1.2,1.3c0,0.7,0.6,1.3,1.3,1.2c0.7,0,1.3-0.6,1.2-1.3C13.2,5.4,12.6,4.8,11.9,4.9z"/>
<path class="st6" d="M11.9,4.1c-0.8,0-1.4,0.7-1.4,1.5S11.2,7,11.9,7c0.8,0,1.4-0.7,1.4-1.5C13.3,4.7,12.7,4.1,11.9,4.1z"/>
<path class="st1" d="M15.3,11.3c-0.1-0.3-0.4-0.6-0.7-0.5c-0.3,0.1-0.6,0.4-0.5,0.7c0.1,0.3,0.4,0.6,0.7,0.5
	C15.2,12,15.4,11.7,15.3,11.3z"/>
<path class="st2" d="M16.5,11.1c-0.1-0.4-0.5-0.7-0.9-0.6c-0.4,0.1-0.7,0.5-0.6,0.9c0.1,0.4,0.5,0.7,0.9,0.6
	C16.3,12,16.5,11.6,16.5,11.1z"/>
<path class="st3" d="M17.6,10.9c-0.1-0.5-0.6-0.8-1-0.7c-0.5,0.1-0.8,0.6-0.7,1c0.1,0.5,0.6,0.8,1,0.7
	C17.4,11.9,17.7,11.4,17.6,10.9z"/>
<path class="st4" d="M18.7,10.7c-0.1-0.6-0.6-0.9-1.2-0.8c-0.6,0.1-0.9,0.6-0.8,1.2c0.1,0.6,0.6,0.9,1.2,0.8
	C18.5,11.8,18.9,11.3,18.7,10.7z"/>
<path class="st5" d="M19.9,10.5c-0.1-0.6-0.7-1-1.3-0.9c-0.6,0.1-1,0.7-0.9,1.3c0.1,0.6,0.7,1,1.3,0.9C19.6,11.7,20,11.1,19.9,10.5z
	"/>
<path class="st6" d="M21,10.3c-0.1-0.7-0.8-1.2-1.5-1c-0.7,0.1-1.2,0.8-1,1.5c0.1,0.7,0.8,1.2,1.5,1C20.7,11.7,21.2,11,21,10.3z"/>
<path class="st1" d="M9.5,10.1c-0.2,0.3-0.1,0.7,0.2,0.9c0.3,0.2,0.7,0.1,0.9-0.2c0.2-0.3,0.1-0.7-0.2-0.9
	C10.1,9.7,9.7,9.8,9.5,10.1z"/>
<path class="st2" d="M8.5,9.5c-0.2,0.4-0.1,0.8,0.3,1.1c0.4,0.2,0.8,0.1,1.1-0.3C10,9.9,9.9,9.4,9.5,9.2C9.2,9,8.7,9.1,8.5,9.5z"/>
<path class="st3" d="M7.5,8.9c-0.3,0.4-0.1,1,0.3,1.2c0.4,0.3,1,0.1,1.2-0.3c0.3-0.4,0.1-1-0.3-1.2C8.3,8.3,7.8,8.4,7.5,8.9z"/>
<path class="st4" d="M6.5,8.3C6.2,8.7,6.4,9.4,6.8,9.7C7.3,10,8,9.8,8.3,9.3c0.3-0.5,0.1-1.1-0.3-1.4C7.4,7.6,6.8,7.8,6.5,8.3z"/>
<path class="st5" d="M5.5,7.7C5.2,8.2,5.4,8.9,5.9,9.2c0.5,0.3,1.3,0.2,1.6-0.4s0.2-1.3-0.4-1.6C6.6,6.9,5.9,7.1,5.5,7.7z"/>
<path class="st6" d="M4.5,7C4.2,7.7,4.4,8.4,5,8.8C5.6,9.2,6.4,9,6.7,8.4C7.1,7.8,6.9,7,6.3,6.6C5.7,6.3,4.9,6.4,4.5,7z"/>
<circle class="st6" cx="12" cy="12" r="1.2"/>
</svg>
