<svg width="24" height="24" viewBox="0 0 24 24" fill="none" xmlns="http://www.w3.org/2000/svg">
<path d="M11.9272 1.01386C13.1591 1.15289 14.049 2.30112 13.9149 3.5785C13.7808 4.85588 12.6735 5.77869 11.4417 5.63966C10.2099 5.50062 9.31999 4.3524 9.45407 3.07502C9.58814 1.79764 10.6954 0.874826 11.9272 1.01386Z" fill="#535DFF"/>
<path d="M17.1084 9.55654L15.0586 9.24058C14.9478 9.21185 14.837 9.15441 14.7816 9.06823C13.0643 6.45437 12.7042 6.31075 12.2056 6.28202L10.5436 6.16713C10.2112 6.13841 9.93422 6.13841 7.44128 7.66077C6.91499 7.97673 6.4995 8.43631 6.19481 9.01079L5.11453 11.1364C4.86524 11.6534 5.03144 12.2853 5.53002 12.5725C5.66852 12.6587 5.83472 12.6874 6.00091 12.6874C6.361 12.6874 6.7211 12.4864 6.88729 12.113L7.96757 9.9874C8.07837 9.75761 8.24456 9.58526 8.43846 9.47037C8.48001 9.44165 8.51463 9.4201 8.54926 9.39856C8.58388 9.37702 8.6185 9.35547 8.66005 9.32675L7.93987 12.63C7.80137 13.2906 7.96757 13.98 8.43846 14.4396L11.707 17.829C11.7347 17.8577 11.7624 17.8864 11.7624 17.9439L13.175 22.195C13.3412 22.6833 13.7844 22.9993 14.283 22.9993C14.4013 22.9993 14.4994 22.9783 14.6118 22.9543L14.6708 22.9418C15.2802 22.7121 15.6126 22.0227 15.391 21.3908L13.9783 17.1396C13.8398 16.7662 13.6459 16.3928 13.3689 16.1056L11.5408 14.2098L12.8704 9.8725C12.9535 9.9874 13.0366 10.1023 13.1196 10.2459C13.5074 10.8204 14.1168 11.2225 14.7816 11.3087L16.8314 11.6247C17.3854 11.7108 17.9116 11.3087 17.9947 10.7342C18.0501 10.1885 17.6623 9.64271 17.1084 9.55654Z" fill="#535DFF"/>
<path d="M6.52713 21.3627C6.30553 21.9947 6.61022 22.684 7.21961 22.9138C7.35811 22.9713 7.4966 23 7.6351 23C8.10599 23 8.54918 22.684 8.74307 22.1957L10.2942 17.801L8.46608 15.9339L6.52713 21.3627Z" fill="#535DFF"/>
</svg>
