<?xml version="1.0" encoding="utf-8"?>
<!-- Generator: Adobe Illustrator 24.1.0, SVG Export Plug-In . SVG Version: 6.00 Build 0)  -->
<svg version="1.1" id="Layer_1" xmlns="http://www.w3.org/2000/svg" xmlns:xlink="http://www.w3.org/1999/xlink" x="0px" y="0px"
	 viewBox="0 0 24 24" style="enable-background:new 0 0 24 24;" xml:space="preserve">
<style type="text/css">
	.st0{fill:#535DFF;}
</style>
<path class="st0" d="M4.6,19.2c-1,0-2-0.5-2.6-1.4c-0.8-1.3-0.6-3,0.6-4l4.1-3.5l0.9,5.3c0.3,1.5-0.7,3-2.1,3.4
	C5.2,19.1,4.9,19.2,4.6,19.2z M5.3,14.1l-1.4,1.2c-0.4,0.3-0.5,0.9-0.2,1.4c0.3,0.4,0.7,0.6,1.2,0.4c0.5-0.2,0.8-0.7,0.7-1.2
	L5.3,14.1z M19.4,19.2c-0.3,0-0.6,0-0.9-0.1c-1.5-0.4-2.4-1.9-2.1-3.4l0.9-5.3l4.1,3.5c1.2,1,1.4,2.7,0.6,4
	C21.4,18.7,20.4,19.2,19.4,19.2z M18.4,15.9c-0.1,0.5,0.2,1,0.7,1.2c0.5,0.1,0.9,0,1.2-0.4c0.3-0.4,0.2-1-0.2-1.4l-1.4-1.2
	L18.4,15.9z M12,23.2c-0.6,0-1.3-0.2-1.8-0.6c-1.2-0.9-1.6-2.6-0.8-4L12,14l2.7,4.7c0.8,1.3,0.4,3-0.8,4C13.3,23,12.6,23.2,12,23.2z
	 M11.1,19.6c-0.3,0.5-0.1,1.1,0.3,1.4c0.4,0.3,0.9,0.3,1.3,0c0.4-0.3,0.5-0.9,0.3-1.4L12,18L11.1,19.6z M12,12.1
	c-0.8,0-1.5-0.2-2.2-0.7h0c-1.6-1.1-2-3.3-1-5L12,1l3.2,5.4c1,1.7,0.6,3.8-1,5C13.5,11.9,12.8,12.1,12,12.1z M11,9.8
	c0.6,0.4,1.4,0.4,2.1,0c0.7-0.5,1-1.5,0.5-2.3L12,4.9l-1.5,2.5C10,8.3,10.2,9.3,11,9.8L11,9.8z"/>
</svg>
