<?xml version="1.0" encoding="utf-8"?>
<!-- Generator: Adobe Illustrator 24.1.0, SVG Export Plug-In . SVG Version: 6.00 Build 0)  -->
<svg version="1.1" id="Layer_1" xmlns="http://www.w3.org/2000/svg" xmlns:xlink="http://www.w3.org/1999/xlink" x="0px" y="0px"
	 viewBox="0 0 24 24" style="enable-background:new 0 0 24 24;" xml:space="preserve">
<style type="text/css">
	.st0{fill-rule:evenodd;clip-rule:evenodd;fill:#A6ABFF;}
	.st1{fill:#535DFF;}
</style>
<path id="const" class="st0" d="M16,11.6c-0.9-1-2.4-1.6-4-1.6s-3.1,0.6-4,1.6C8.2,9.6,9.9,8,12,8C14.1,8,15.8,9.6,16,11.6z"/>
<path class="st1" d="M19,22H5c-1.7,0-3-1.3-3-3V5c0-1.7,1.3-3,3-3h14c1.7,0,3,1.3,3,3v14C22,20.7,20.7,22,19,22z M5,4
	C4.4,4,4,4.4,4,5v14c0,0.6,0.4,1,1,1h14c0.6,0,1-0.4,1-1V5c0-0.6-0.4-1-1-1H5z M12,18c-3.3,0-6-2.7-6-6c0-3.3,2.7-6,6-6s6,2.7,6,6
	C18,15.3,15.3,18,12,18z M12,8c-2.2,0-4,1.8-4,4s1.8,4,4,4c2.2,0,4-1.8,4-4S14.2,8,12,8z M10,11c0.6,0,1,0.4,1,1s-0.4,1-1,1
	s-1-0.4-1-1S9.4,11,10,11z M14,11c0.6,0,1,0.4,1,1s-0.4,1-1,1s-1-0.4-1-1S13.4,11,14,11z"/>
</svg>
