<?xml version="1.0" encoding="utf-8"?>
<!-- Generator: Adobe Illustrator 24.1.0, SVG Export Plug-In . SVG Version: 6.00 Build 0)  -->
<svg version="1.1" id="Layer_1" xmlns="http://www.w3.org/2000/svg" xmlns:xlink="http://www.w3.org/1999/xlink" x="0px" y="0px"
	 viewBox="0 0 24 24" style="enable-background:new 0 0 24 24;" xml:space="preserve">
<style type="text/css">
	.st0{fill:#535DFF;}
	.st1{fill:#A6ABFF;}
</style>
<path id="var" class="st0" d="M22,5h-2H4H2C1.4,5,1,5.4,1,6s0.4,1,1,1h2c0,4.4,3.6,8,8,8s8-3.6,8-8h2c0.6,0,1-0.4,1-1S22.6,5,22,5z
	 M12,13c-3.3,0-6-2.7-6-6h12C18,10.3,15.3,13,12,13z"/>
<path class="st1" d="M14,8c1.1,0,2,0.9,2,2s-0.9,2-2,2s-2-0.9-2-2S12.9,8,14,8z M21.4,14.6l-4.3,0.7l1.1,1.1c-3.5,3.4-9,3.4-12.4,0
	l1.1-1.1l-4.3-0.7l0.7,4.3l1.1-1.1c4.2,4.1,11,4.1,15.2,0l1.1,1.1L21.4,14.6z"/>
</svg>
