<?xml version="1.0" encoding="utf-8"?>
<!-- Generator: Adobe Illustrator 24.1.0, SVG Export Plug-In . SVG Version: 6.00 Build 0)  -->
<svg version="1.1" id="Layer_1" xmlns="http://www.w3.org/2000/svg" xmlns:xlink="http://www.w3.org/1999/xlink" x="0px" y="0px"
	 viewBox="0 0 24 24" style="enable-background:new 0 0 24 24;" xml:space="preserve">
<style type="text/css">
	.st0{fill-rule:evenodd;clip-rule:evenodd;fill:#A6ABFF;}
	.st1{fill:#535DFF;}
</style>
<path id="coil" class="st0" d="M22,0v2c0,0.6-0.4,1-1,1h-4.6c1,0.5,2,1.2,2.8,2H21c1.7,0,3-1.3,3-3V0H22z M4.9,5H3C2.4,5,2,5.4,2,6
	c0,0.6,0.4,1,1,1h0.3C3,7.6,2.7,8.3,2.5,9C1.1,8.7,0,7.5,0,6c0-1.7,1.3-3,3-3h4.6C6.6,3.5,5.7,4.2,4.9,5z M21.6,9.2
	c-0.2-0.8-0.5-1.5-0.9-2.2H21c1.7,0,3,1.3,3,3c0,1.3-0.9,2.4-2,2.8c0-0.3,0-0.6,0-0.8c0-0.5,0-1-0.1-1.5C22,10.3,22,10.2,22,10
	C22,9.7,21.8,9.4,21.6,9.2z M2,11.2c-1.2,0.4-2,1.5-2,2.8c0,1.7,1.3,3,3,3h0.3c-0.4-0.7-0.7-1.4-0.9-2.2C2.2,14.6,2,14.3,2,14
	c0-0.2,0-0.3,0.1-0.5C2,13,2,12.5,2,12C2,11.7,2,11.4,2,11.2z M21.5,15c-0.2,0.7-0.5,1.3-0.9,2H21c0.6,0,1,0.4,1,1s-0.4,1-1,1h-1.9
	c-0.8,0.8-1.7,1.5-2.8,2H21c1.7,0,3-1.3,3-3C24,16.5,22.9,15.3,21.5,15z M7.6,21c-1-0.5-2-1.2-2.8-2H3c-1.7,0-3,1.3-3,3v2h2v-2
	c0-0.6,0.4-1,1-1H7.6z M12,9.4c1.4,0,2.6,1.1,2.6,2.6s-1.1,2.6-2.6,2.6S9.4,13.4,9.4,12S10.6,9.4,12,9.4z"/>
<path id="fan" class="st1" d="M20.3,11c-0.7-0.8-1.8-1.2-2.8-1l-2.2,0.5l0.5-1.2c0.5-1.1,0.4-2.3-0.1-3.4c-0.5-1.1-1.5-1.9-2.6-2.2
	c-1-0.3-2.1-0.4-3.2-0.3L9.3,3.5C8.2,3.6,7.3,4.3,7,5.3c-0.4,1-0.2,2.1,0.6,2.9L9,9.8L7.8,10c-1.2,0.1-2.2,0.8-2.9,1.8
	S4,14,4.3,15.2c0.3,1,0.7,2,1.4,2.9L6,18.6c0.5,0.8,1.4,1.2,2.3,1.2c0.2,0,0.3,0,0.5,0c1.1-0.2,1.9-0.9,2.2-1.9l0.6-2.1l0.8,1
	c0.7,1,1.8,1.5,3,1.6c0.1,0,0.2,0,0.3,0c1.1,0,2.1-0.4,2.9-1.2c0.8-0.8,1.4-1.6,1.8-2.6l0.3-0.6C21.1,12.9,21,11.8,20.3,11z
	 M12,13.6c-0.9,0-1.6-0.7-1.6-1.6s0.7-1.6,1.6-1.6s1.6,0.7,1.6,1.6S12.9,13.6,12,13.6z M9,6.8C8.7,6.5,8.8,6.2,8.8,6
	C8.9,5.9,9,5.6,9.5,5.5l0.6-0.1c0.8-0.1,1.7,0,2.5,0.2c0.6,0.2,1.1,0.6,1.4,1.1c0.3,0.6,0.3,1.2,0,1.8L13.8,9
	c-0.5-0.3-1.2-0.5-1.8-0.5c-0.5,0-0.9,0.1-1.3,0.3L9,6.8z M8.4,17.7c-0.1,0-0.5,0-0.8-0.3l-0.4-0.5c-0.5-0.7-0.8-1.4-1.1-2.3
	c-0.2-0.6-0.1-1.2,0.3-1.7C6.8,12.4,7.4,12.1,8,12l0.4-0.1c0,0,0,0,0,0.1c0,1.1,0.5,2.1,1.3,2.8L9,17.2C8.9,17.6,8.6,17.7,8.4,17.7z
	 M18.9,13.1l-0.3,0.6c-0.4,0.8-0.8,1.5-1.4,2.1c-0.4,0.4-1,0.7-1.6,0.6c-0.6,0-1.2-0.3-1.5-0.8l-0.3-0.4c0.9-0.5,1.6-1.5,1.8-2.6
	L18,12c0.4-0.1,0.7,0.2,0.8,0.3S19.1,12.7,18.9,13.1z"/>
</svg>
