<?xml version="1.0" encoding="utf-8"?>
<!-- Generator: Adobe Illustrator 24.1.0, SVG Export Plug-In . SVG Version: 6.00 Build 0)  -->
<svg version="1.1" id="Layer_1" xmlns="http://www.w3.org/2000/svg" xmlns:xlink="http://www.w3.org/1999/xlink" x="0px" y="0px"
	 viewBox="0 0 24 24" style="enable-background:new 0 0 24 24;" xml:space="preserve">
<style type="text/css">
	.st0{fill:#A6ABFF;}
	.st1{fill:#535DFF;}
</style>
<polygon class="st0" points="13,3 13,5 17,5 17,19 13,19 13,21 19,21 19,3 "/>
<path class="st1" d="M21,19h-7V2L5,3v16H3c-0.6,0-1,0.4-1,1c0,0.6,0.4,1,1,1h2v0l9,1v-1h7c0.6,0,1-0.4,1-1C22,19.4,21.6,19,21,19z
	 M7,4.8l5-0.6v15.5l-5-0.6V4.8z M11,11L11,11c0.6,0,1,0.4,1,1l0,0c0,0.6-0.4,1-1,1l0,0c-0.6,0-1-0.4-1-1l0,0C10,11.4,10.4,11,11,11z
	"/>
</svg>
