<?xml version="1.0" encoding="utf-8"?>
<!-- Generator: Adobe Illustrator 24.1.0, SVG Export Plug-In . SVG Version: 6.00 Build 0)  -->
<svg version="1.1" id="Layer_1" xmlns="http://www.w3.org/2000/svg" xmlns:xlink="http://www.w3.org/1999/xlink" x="0px" y="0px"
	 viewBox="0 0 24 24" style="enable-background:new 0 0 24 24;" xml:space="preserve">
<style type="text/css">
	.st0{fill:#A6ABFF;}
	.st1{fill:#535DFF;}
	.st2{fill:none;}
</style>
<path id="win" class="st0" d="M13,6h-2H5v16h14V6H13z M7,8h4v12H7V8z M17,20h-4V8h4V20z"/>
<path id="top" class="st1" d="M5,3c0-0.6,0.4-1,1-1h12c0.6,0,1,0.4,1,1v2H5V3z"/>
<path class="st1" d="M18,5H6C5.4,5,5,5.4,5,6v15c0,0.6,0.4,1,1,1h12c0.6,0,1-0.4,1-1V6C19,5.4,18.6,5,18,5z M17,20H7v-1h10V20z
	 M17,18H7v-1h10V18z M17,16H7v-1h10V16z M17,14H7v-1h10V14z M17,12H7v-1h10V12z M17,10H7V9h10V10z M17,8H7V7h10V8z"/>
<rect id="mask" x="5" y="5" class="st2" width="14" height="17"/>
</svg>
