<?xml version="1.0" encoding="utf-8"?>
<!-- Generator: Adobe Illustrator 24.1.0, SVG Export Plug-In . SVG Version: 6.00 Build 0)  -->
<svg version="1.1" id="Layer_1" xmlns="http://www.w3.org/2000/svg" xmlns:xlink="http://www.w3.org/1999/xlink" x="0px" y="0px"
	 viewBox="0 0 24 24" style="enable-background:new 0 0 24 24;" xml:space="preserve">
<style type="text/css">
	.st0{fill:#A6ABFF;}
	.st1{fill-rule:evenodd;clip-rule:evenodd;fill:#535DFF;}
	.st2{fill-rule:evenodd;clip-rule:evenodd;fill:#DDC02C;}
</style>
<path class="st0" d="M8.3,16H3.8C3.3,16,3,16.3,3,16.7v1.2c0,0.4,0.3,0.7,0.7,0.7l0.5,1C4.4,19.8,4.7,20,5,20H7
	c0.3,0,0.6-0.2,0.8-0.4l0.5-1c0.4,0,0.7-0.3,0.7-0.7v-1.2C9,16.3,8.7,16,8.3,16z"/>
<path class="st0" d="M20.3,8h-4.5C15.3,8,15,7.7,15,7.3V6.1c0-0.4,0.3-0.7,0.7-0.7l0.5-1C16.4,4.2,16.7,4,17,4H19
	c0.3,0,0.6,0.2,0.8,0.4l0.5,1c0.4,0,0.7,0.3,0.7,0.7v1.2C21,7.7,20.7,8,20.3,8z"/>
<path class="st1" d="M6,3C2.6,3,0,5.9,0,9.4c0,1.7,0.6,3.3,1.7,4.5c0.4,0.4,0.8,1,1,1.5C2.3,15.7,2,16.1,2,16.7v1.2
	c0,0.7,0.5,1.3,1,1.5l0.3,0.6c0.2,0.3,0.5,0.5,0.7,0.7C4.3,20.9,4.7,21,5,21H7c0.4,0,0.7-0.1,0.9-0.3c0.3-0.1,0.5-0.4,0.7-0.7
	L9,19.4c0.6-0.3,1-0.8,1-1.5v-1.2c0-0.6-0.3-1-0.7-1.4c0.2-0.5,0.6-1.1,1-1.5c1.1-1.2,1.7-2.7,1.7-4.5C12,5.9,9.4,3,6,3z M7.3,15
	c0.3-1,1-1.9,1.5-2.5l0,0c0.7-0.8,1.2-1.9,1.2-3.1C10,6.9,8.1,5,6,5C3.9,5,2,6.9,2,9.4c0,1.2,0.5,2.3,1.2,3.1
	C3.7,13.1,4.4,14,4.7,15H7.3z M4,17v0.6l0.3,0L5.1,19h1.8l0.8-1.4l0.3,0V17H4z"/>
<path class="st1" d="M18,21c-3.4,0-6-2.9-6-6.4c0-1.7,0.6-3.3,1.7-4.5c0.4-0.4,0.8-1,1-1.5C14.3,8.3,14,7.9,14,7.3V6.1
	c0-0.7,0.5-1.3,1-1.5l0.3-0.6c0.2-0.3,0.5-0.5,0.7-0.7C16.3,3.1,16.7,3,17,3H19c0.4,0,0.7,0.1,0.9,0.3c0.3,0.1,0.5,0.4,0.7,0.7
	L21,4.6c0.6,0.3,1,0.8,1,1.5v1.2c0,0.6-0.3,1-0.7,1.4c0.2,0.5,0.6,1.1,1,1.5c1.1,1.2,1.7,2.7,1.7,4.5C24,18.1,21.4,21,18,21z
	 M19.3,9c0.3,1,1,1.9,1.5,2.5l0,0c0.7,0.8,1.2,1.9,1.2,3.1c0,2.5-1.9,4.4-4,4.4c-2.1,0-4-1.9-4-4.4c0-1.2,0.5-2.3,1.2-3.1
	c0.5-0.6,1.2-1.5,1.5-2.5H19.3z M16,7V6.4l0.3,0L17.1,5h1.8l0.8,1.4l0.3,0V7H16z"/>
<path id="light" class="st2" d="M7.3,15c0.3-1,1-1.9,1.5-2.5l0,0c0.7-0.8,1.2-1.9,1.2-3.1C10,6.9,8.1,5,6,5C3.9,5,2,6.9,2,9.4
	c0,1.2,0.5,2.3,1.2,3.1C3.7,13.1,4.4,14,4.7,15H7.3z"/>
<path class="st2" d="M19.3,9c0.3,1,1,1.9,1.5,2.5l0,0c0.7,0.8,1.2,1.9,1.2,3.1c0,2.5-1.9,4.4-4,4.4c-2.1,0-4-1.9-4-4.4
	c0-1.2,0.5-2.3,1.2-3.1c0.5-0.6,1.2-1.5,1.5-2.5H19.3z"/>
</svg>
