<?xml version="1.0" encoding="utf-8"?>
<!-- Generator: Adobe Illustrator 24.0.3, SVG Export Plug-In . SVG Version: 6.00 Build 0)  -->
<svg version="1.1" id="Layer_1" xmlns="http://www.w3.org/2000/svg" xmlns:xlink="http://www.w3.org/1999/xlink" x="0px" y="0px"
	 viewBox="0 0 24 24" style="enable-background:new 0 0 24 24;" xml:space="preserve">
<g>
	<path d="M16.7,20.9c-0.4,0-0.7-0.1-1-0.3L12,18.4l-3.6,2.2C7.7,21,6.8,21,6.2,20.5c-0.7-0.5-1-1.3-0.8-2.1l1-4.1l-3.2-2.8
		C2.5,11,2.3,10.2,2.5,9.4C2.8,8.6,3.5,8.1,4.3,8l4.2-0.4l1.7-3.9c0.3-0.7,1-1.2,1.8-1.2c0.8,0,1.5,0.5,1.8,1.2l1.7,3.9l4.2,0.4
		c0.8,0.1,1.5,0.6,1.7,1.4c0.3,0.8,0,1.6-0.6,2.1l-3.2,2.8l1,4.1c0.2,0.8-0.1,1.6-0.8,2.1C17.5,20.8,17.1,20.9,16.7,20.9z M12,16.1
		l4.7,2.8l-1.2-5.3l4.1-3.6l-5.4-0.5l-2.1-5l-2.1,5L4.4,10l4.1,3.6l-1.2,5.3L12,16.1z"/>
</g>
</svg>
