<?xml version="1.0" encoding="utf-8"?>
<!-- Generator: Adobe Illustrator 24.1.0, SVG Export Plug-In . SVG Version: 6.00 Build 0)  -->
<svg version="1.1" id="Layer_1" xmlns="http://www.w3.org/2000/svg" xmlns:xlink="http://www.w3.org/1999/xlink" x="0px" y="0px"
	 viewBox="0 0 24 24" style="enable-background:new 0 0 24 24;" xml:space="preserve">
<style type="text/css">
	.st0{fill-rule:evenodd;clip-rule:evenodd;fill:#535DFF;}
	.st1{fill-rule:evenodd;clip-rule:evenodd;fill:#FF7253;}
</style>
<path id="snow" class="st0" d="M11,0.5c-0.6,0-1,0.4-1,1v1.6l-1.4-1C8.1,1.9,7.5,2,7.2,2.4C6.9,2.9,7,3.5,7.4,3.8L10,5.5v4.7
	L5.9,7.9L5.7,4.8c0-0.6-0.5-1-1.1-0.9c-0.6,0-1,0.5-0.9,1.1l0.1,1.7L2.4,5.9C1.9,5.6,1.3,5.8,1,6.3C0.8,6.7,0.9,7.3,1.4,7.6l1.4,0.8
	L1.3,9.2C0.8,9.4,0.6,10,0.8,10.5C1.1,11,1.7,11.2,2.1,11l2.8-1.4L9,12l-4.1,2.4L2.1,13c-0.5-0.2-1.1,0-1.3,0.5
	c-0.2,0.5,0,1.1,0.5,1.3l1.6,0.8l-1.4,0.8c-0.5,0.3-0.6,0.9-0.4,1.4c0.3,0.5,0.9,0.6,1.4,0.4l1.4-0.8L3.7,19c0,0.6,0.4,1,0.9,1.1
	c0.6,0,1-0.4,1.1-0.9l0.2-3.1l4.1-2.4v4.7l-2.6,1.7c-0.5,0.3-0.6,0.9-0.3,1.4c0.3,0.5,0.9,0.6,1.4,0.3l1.4-1v1.6c0,0.6,0.4,1,1,1
	V0.5z"/>
<path id="sun" class="st1" d="M12,24L12,24L12,24L12,24z M13,21.2l0.6-1.7c-0.2,0-0.4,0.1-0.6,0.1V21.2z M13,17.9
	c2.8-0.5,5-2.9,5-5.9c0-3-2.2-5.4-5-5.9V17.9z M13,4.4c0.2,0,0.4,0.1,0.6,0.1L13,2.8V4.4z M18,22.4l-0.9-4.8
	c-0.8,0.7-1.8,1.3-2.8,1.7L18,22.4z M22.4,18l-3.1-3.7c-0.3,1.1-0.9,2-1.6,2.8L22.4,18z M24,12l-4.6-1.6c0.1,0.5,0.2,1.1,0.2,1.6
	c0,0.6-0.1,1.1-0.2,1.6L24,12z M22.4,6l-4.8,0.9c0.7,0.8,1.3,1.8,1.6,2.8L22.4,6z M18,1.6l-3.7,3.1c1.1,0.3,2,0.9,2.8,1.7L18,1.6z"
	/>
</svg>
